<svg width="696" height="209" viewBox="0 0 696 209" fill="none" xmlns="http://www.w3.org/2000/svg">
<g clip-path="url(#clip0_3_2)">
<rect x="597" y="109" width="100" height="100" fill="#22B14C"/>
<g clip-path="url(#clip1_3_2)">
<path d="M647.046 209C671.521 209 691.361 189.812 691.361 166.143C691.361 142.474 671.521 123.286 647.046 123.286C622.572 123.286 602.732 142.474 602.732 166.143C602.732 189.812 622.572 209 647.046 209Z" fill="#E6E6E6"/>
<mask id="mask0_3_2" style="mask-type:luminance" maskUnits="userSpaceOnUse" x="602" y="123" width="90" height="86">
<path d="M647.046 209C671.521 209 691.361 189.812 691.361 166.143C691.361 142.474 671.521 123.286 647.046 123.286C622.572 123.286 602.732 142.474 602.732 166.143C602.732 189.812 622.572 209 647.046 209Z" fill="white"/>
</mask>
<g mask="url(#mask0_3_2)">
<path d="M691.361 123.286H602.732V209H691.361V123.286Z" fill="#65C9FF"/>
</g>
<mask id="mask1_3_2" style="mask-type:luminance" maskUnits="userSpaceOnUse" x="598" y="109" width="98" height="100">
<path d="M602.732 166.143C602.732 189.812 622.572 209 647.046 209C671.521 209 691.361 189.812 691.361 166.143H695.793V109H598.3V166.143H602.732Z" fill="white"/>
</mask>
<g mask="url(#mask1_3_2)">
<path d="M655.909 173.504V180.071H657.386C672.071 180.071 683.975 191.584 683.975 205.786V209H610.117V205.786C610.117 191.584 622.022 180.071 636.706 180.071H638.183V173.504C631.818 170.579 627.242 164.602 626.479 157.529C624.328 157.235 622.673 155.447 622.673 153.286V148.286C622.673 146.162 624.27 144.399 626.366 144.059V141.857C626.366 130.811 635.625 121.857 647.046 121.857C658.468 121.857 667.727 130.811 667.727 141.857V144.059C669.822 144.399 671.419 146.162 671.419 148.286V153.286C671.419 155.447 669.765 157.235 667.614 157.529C666.85 164.602 662.275 170.579 655.909 173.504Z" fill="#D0C6AC"/>
<mask id="mask2_3_2" style="mask-type:luminance" maskUnits="userSpaceOnUse" x="610" y="121" width="74" height="88">
<path d="M655.909 173.504V180.071H657.386C672.071 180.071 683.975 191.584 683.975 205.786V209H610.117V205.786C610.117 191.584 622.022 180.071 636.706 180.071H638.183V173.504C631.818 170.579 627.242 164.602 626.479 157.529C624.328 157.235 622.673 155.447 622.673 153.286V148.286C622.673 146.162 624.27 144.399 626.366 144.059V141.857C626.366 130.811 635.625 121.857 647.046 121.857C658.468 121.857 667.727 130.811 667.727 141.857V144.059C669.822 144.399 671.419 146.162 671.419 148.286V153.286C671.419 155.447 669.765 157.235 667.614 157.529C666.85 164.602 662.275 170.579 655.909 173.504Z" fill="white"/>
</mask>
<g mask="url(#mask2_3_2)">
<path d="M707.61 121.857H610.117V221.857H707.61V121.857Z" fill="#D08B5B"/>
</g>
<mask id="mask3_3_2" style="mask-type:luminance" maskUnits="userSpaceOnUse" x="610" y="121" width="74" height="88">
<path d="M655.909 173.504V180.071H657.386C672.071 180.071 683.975 191.584 683.975 205.786V209H610.117V205.786C610.117 191.584 622.022 180.071 636.706 180.071H638.183V173.504C631.818 170.579 627.242 164.602 626.479 157.529C624.328 157.235 622.673 155.447 622.673 153.286V148.286C622.673 146.162 624.27 144.399 626.366 144.059V141.857C626.366 130.811 635.625 121.857 647.046 121.857C658.468 121.857 667.727 130.811 667.727 141.857V144.059C669.822 144.399 671.419 146.162 671.419 148.286V153.286C671.419 155.447 669.765 157.235 667.614 157.529C666.85 164.602 662.275 170.579 655.909 173.504Z" fill="white"/>
</mask>
<g mask="url(#mask3_3_2)">
<path fill-rule="evenodd" clip-rule="evenodd" d="M667.727 150.071V158.286C667.727 169.331 658.468 178.286 647.046 178.286C635.625 178.286 626.366 169.331 626.366 158.286V150.071V155.429C626.366 166.474 635.625 175.429 647.046 175.429C658.468 175.429 667.727 166.474 667.727 155.429V150.071Z" fill="black" fill-opacity="0.1"/>
</g>
<path fill-rule="evenodd" clip-rule="evenodd" d="M637.147 180.09H636.706C622.022 180.09 610.117 191.603 610.117 205.804V209H683.975V205.804C683.975 191.603 672.071 180.09 657.386 180.09H656.946C656.993 180.441 657.017 180.799 657.017 181.161C657.017 186.092 652.553 190.09 647.046 190.09C641.54 190.09 637.075 186.092 637.075 181.161C637.075 180.799 637.1 180.441 637.147 180.09Z" fill="#E6E6E6"/>
<mask id="mask4_3_2" style="mask-type:luminance" maskUnits="userSpaceOnUse" x="610" y="180" width="74" height="29">
<path fill-rule="evenodd" clip-rule="evenodd" d="M637.147 180.09H636.706C622.022 180.09 610.117 191.603 610.117 205.804V209H683.975V205.804C683.975 191.603 672.071 180.09 657.386 180.09H656.946C656.993 180.441 657.017 180.799 657.017 181.161C657.017 186.092 652.553 190.09 647.046 190.09C641.54 190.09 637.075 186.092 637.075 181.161C637.075 180.799 637.1 180.441 637.147 180.09Z" fill="white"/>
</mask>
<g mask="url(#mask4_3_2)">
<path d="M695.793 169.714H598.3V209H695.793V169.714Z" fill="#E6E6E6"/>
</g>
<path fill-rule="evenodd" clip-rule="evenodd" d="M655.909 177.671C658.192 179.298 659.602 181.538 659.602 184.01C659.602 186.583 658.074 188.905 655.624 190.545L653.538 188.956L651.847 189.074L652.216 187.949L652.188 187.927C654.44 186.805 655.909 184.964 655.909 182.885V177.671ZM638.183 177.418C635.684 179.062 634.121 181.407 634.121 184.01C634.121 186.652 635.732 189.029 638.297 190.676L640.554 188.956L642.245 189.074L641.876 187.949L641.905 187.927C639.652 186.805 638.183 184.964 638.183 182.885V177.418Z" fill="#F2F2F2"/>
<path fill-rule="evenodd" clip-rule="evenodd" d="M641.876 162.214C641.876 164.976 644.191 167.214 647.046 167.214C649.902 167.214 652.216 164.976 652.216 162.214" fill="black" fill-opacity="0.7"/>
<path fill-rule="evenodd" clip-rule="evenodd" d="M642.615 155.429C642.615 157.007 644.599 158.286 647.046 158.286C649.494 158.286 651.478 157.007 651.478 155.429" fill="black" fill-opacity="0.16"/>
<path d="M637.445 151.143C638.668 151.143 639.66 150.183 639.66 149C639.66 147.817 638.668 146.857 637.445 146.857C636.221 146.857 635.229 147.817 635.229 149C635.229 150.183 636.221 151.143 637.445 151.143Z" fill="black" fill-opacity="0.6"/>
<path d="M656.648 151.143C657.872 151.143 658.864 150.183 658.864 149C658.864 147.817 657.872 146.857 656.648 146.857C655.424 146.857 654.432 147.817 654.432 149C654.432 150.183 655.424 151.143 656.648 151.143Z" fill="black" fill-opacity="0.6"/>
<path d="M632.138 144.414C633.584 142.446 637.547 141.343 640.962 142.154C641.358 142.248 641.758 142.014 641.855 141.631C641.952 141.248 641.71 140.861 641.314 140.767C637.349 139.825 632.759 141.102 630.934 143.586C630.698 143.908 630.776 144.354 631.108 144.582C631.441 144.811 631.902 144.735 632.138 144.414Z" fill="black" fill-opacity="0.6"/>
<path d="M661.954 144.414C660.509 142.446 656.545 141.343 653.131 142.154C652.735 142.248 652.335 142.014 652.238 141.631C652.14 141.248 652.383 140.861 652.779 140.767C656.744 139.825 661.333 141.102 663.159 143.586C663.395 143.908 663.317 144.354 662.984 144.582C662.652 144.811 662.191 144.735 661.954 144.414Z" fill="black" fill-opacity="0.6"/>
<mask id="mask5_3_2" style="mask-type:luminance" maskUnits="userSpaceOnUse" x="598" y="109" width="98" height="100">
<path d="M695.793 109H598.3V209H695.793V109Z" fill="white"/>
</mask>
<g mask="url(#mask5_3_2)">
<path fill-rule="evenodd" clip-rule="evenodd" d="M667.912 144.312C669.536 144.948 670.681 146.488 670.681 148.286V152.929C670.681 154.817 669.418 156.42 667.664 156.991C667.352 160.901 665.877 164.495 663.574 167.452C663.651 167.74 663.726 168.032 663.78 168.346C663.983 169.534 663.735 170.522 664.387 171.593C664.556 171.872 664.824 172.039 664.949 172.359C665.146 172.864 664.863 174 665.669 174C666.816 174 666.177 171.869 665.889 171.363C665.326 170.373 664.98 170.131 665.009 168.847C665.654 169.261 667.79 170.053 668.498 169.674C670.135 168.8 666.038 167.911 665.752 167.727C666.381 167.132 667.102 166.816 667.671 166.032C668.136 165.391 668.559 164.462 669.351 164.424C669.789 164.403 671.071 165.454 671.459 164.733C671.816 164.073 671.048 163.976 670.748 163.742C670.193 163.31 670.068 163.74 670.203 162.98C670.604 163.396 671.233 163.133 671.401 162.617C671.582 162.061 670.985 161.894 670.996 161.541C670.992 161.679 671.304 159.714 671.255 159.777C671.572 159.372 672.698 159.497 673.254 159.556C674.102 159.644 674.053 159.669 674.456 160.426C674.781 161.038 675.637 162.275 675.825 160.655C675.87 160.267 675.504 159.439 675.289 159.106C675.057 158.746 674.36 158.519 674.214 158.239C673.865 157.571 675.013 156.083 674.819 155.077C675.223 155.226 676.244 157.551 676.739 155.647C677 154.647 674.336 152.453 675.441 152.114C676.286 151.855 677.144 152.909 677.38 153.558C677.554 154.039 677.476 155.072 677.774 155.47C678.895 156.971 679.034 154.491 678.94 153.837C678.734 152.399 678.207 151.342 676.864 150.798C677.342 150.224 676.736 149.767 676.393 149.407C676.957 148.816 680.616 149.445 679.793 147.862C679.594 147.479 678.877 147.411 678.513 147.271C677.593 146.917 676.672 146.196 676.202 145.285C676.882 145.12 678.89 145.569 678.626 144.215C678.418 143.15 676.631 143.476 675.939 143.64C676.564 143.277 677.775 143.577 677.945 142.589C678.142 141.452 676.731 141.491 676.069 141.732C675.914 140.532 678.112 139.649 678.733 138.731C678.943 138.422 679.276 138.316 679.009 137.791C678.526 136.847 677.28 138.179 676.87 138.538C677.193 137.956 678.096 135.536 677.959 134.922C677.757 134.02 677.09 133.988 676.56 134.72C676.216 135.195 676.12 136.399 675.939 137.015C675.186 136.466 675.148 137.103 675.109 136.232C675.084 135.668 675.848 134.554 676.044 134.001C676.212 133.526 676.66 132.658 676.392 132.199C675.737 131.076 675.11 132.617 674.937 133.146C674.646 131.928 675.755 130.983 676.083 129.778C676.283 129.046 676.813 127.071 675.895 126.72C674.641 126.241 675.082 128.49 674.906 129.22C674.771 129.777 674.565 130.676 674.116 130.951C674.051 130.991 673.074 131.073 673.027 131.02C672.387 130.298 674.149 128.717 674.24 128.037C674.323 127.419 674.078 127.028 673.479 126.991C673.18 126.973 672.696 127.42 672.557 127.391C672.011 127.276 672.723 124.859 672.774 124.188C672.83 123.473 672.74 121.627 671.488 122.479C671.572 121.516 671.622 120.609 671.759 119.661C671.831 119.161 672.276 118.716 671.621 118.316C670.825 117.828 670.384 118.848 670.202 119.447C669.89 120.478 670.535 122.081 669.036 122.114C667.313 122.151 668.503 120.424 668.588 119.304C668.635 118.682 668.213 117.01 667.383 118.138C667.052 118.588 667.166 120.172 666.983 120.704C666.574 120.528 667.253 119.091 666.898 118.716C666.137 117.914 665.498 119.083 665.014 119.321C664.983 118.805 664.945 118.288 664.923 117.772C664.889 116.986 665.386 115.332 664.881 114.79C664.018 113.866 663.469 114.944 663.217 115.692C662.991 116.364 662.96 117.028 662.023 117.12C662.1 116.15 661.189 114.107 661.641 113.289C661.845 112.919 662.261 113.181 662.446 112.768C662.749 112.088 662.252 111.8 661.712 111.778C659.204 111.676 661.135 115.04 660.247 115.882C659.841 115.51 660.273 115.127 659.853 114.598C659.402 114.028 658.682 114.076 658.037 114.334C658.016 113.758 658.91 109.72 656.9 111.542C656.4 111.996 656.54 112.754 656.274 113.287C656.018 113.803 655.392 114.572 655.041 114.991C654.852 114.253 655.141 113.338 655.343 112.61C655.484 112.105 656.426 110.537 656.225 110.023C655.642 108.535 653.89 110.994 653.429 111.392C652.845 111.895 650.519 113.551 649.772 113.049C649.513 112.875 649.747 112.231 649.393 111.932C649.22 111.786 648.478 111.717 648.267 111.736C648.399 111.202 648.139 110.512 647.508 110.697C646.714 110.929 647.058 112.067 646.555 112.483C645.621 113.256 644.511 111.729 643.51 111.772C643.663 111.145 644.797 108.892 642.994 109.577C642.534 109.752 642.207 110.774 642.092 111.199C641.8 112.283 642.011 112.482 640.797 112.788C640.892 112.159 640.723 111.378 641.036 110.816C641.293 110.356 642.626 109.158 641.207 109.008C639.456 108.824 639.629 111.748 639.414 112.737C637.861 111.826 636.839 113.129 635.913 114.255C636.078 113.749 636.487 108.699 634.818 110.242C634.341 110.684 634.869 111.337 634.837 111.841C634.808 112.299 634.653 112.706 634.469 113.134C634.176 113.82 633.834 114.522 633.371 115.106C632.79 115.842 632.996 115.9 632.33 115.4C631.434 114.731 631.009 113.035 631.053 111.998C631.086 111.227 631.495 109.66 630.173 110.023C628.878 110.379 629.564 112.871 629.694 113.756C629.835 114.716 629.929 115.698 629.762 116.675C628.66 115.586 628.499 117.855 628.278 118.242C627.917 118.876 627.219 119.187 626.677 119.62C626.382 118.622 627.566 117.778 627.331 116.984C626.89 115.497 625.643 117.597 625.369 118.009C625.141 118.353 624.396 120.31 624.126 120.485C623.748 120.732 621.318 119.583 621.072 119.364C620.621 118.962 620.785 117.838 620.217 117.582C618.474 116.797 619.504 119.63 619.846 120.216C620.739 121.746 621.144 123.593 620.935 125.396C620.618 125.288 620.228 124.927 620.024 124.654C619.626 124.122 619.771 123.273 619.356 122.873C618.142 121.701 617.999 123.901 618.098 124.584C618.283 125.865 618.944 126.281 619.493 127.346C619.998 128.328 619.329 129.513 619.188 130.605C617.921 129.427 612.468 130.411 613.871 132.213C614.601 133.153 615.466 131.364 616.308 131.409C617.816 131.49 618.61 133.3 618.511 134.569C618.328 133.891 617.617 133.225 617.128 134.053C616.797 134.615 617.362 135.575 617.635 136.132C617.301 135.974 615.652 135.232 615.329 135.361C614.059 135.866 615.809 136.843 616.266 137.039C617.826 137.706 618.809 138.438 619.294 140.25C618.42 139.979 618.572 139.579 617.982 139.163C617.441 138.781 617.339 138.978 616.841 138.853C615.969 138.635 614.832 138.344 613.846 138.74C613.119 139.032 611.893 139.922 611.665 140.758C611.385 141.784 611.977 142.045 612.737 141.523C613.642 140.902 613.807 139.7 615.169 139.751C615.822 139.776 616.469 140.107 616.882 140.582C617.19 140.936 617.371 141.45 617.665 141.83C617.924 142.166 618.612 142.637 618.757 142.992C619.281 144.276 618.286 145.419 617.618 146.319C617.464 146.121 616.334 145.691 616.1 145.648C615.015 145.447 614.61 145.933 615.289 146.902C615.502 147.208 615.952 147.336 616.188 147.614C616.451 147.925 616.599 148.4 616.859 148.737C617.374 149.403 618.01 149.745 618.624 150.281C618.397 150.427 618.422 150.058 618.217 150.134C618.068 150.19 617.808 150.079 617.62 150.139C617.314 150.237 617.355 150.753 617.159 150.828C615.941 151.298 614.712 149.537 613.619 149.48C613.023 149.449 612.52 149.835 612.806 150.559C613.005 151.063 613.866 151.337 614.297 151.548C615.496 152.135 616.689 152.572 617.971 152.121C619.004 152.992 620.245 153.422 621.543 153.434C620.8 153.79 620.066 154.232 619.807 155.12C619.368 154.681 618.29 152.637 617.726 154.241C617.341 155.343 619.101 156.695 619.913 157.191C618.969 157.461 618.185 157.515 617.225 157.408C616.724 157.352 615.624 156.703 616.03 158.032C616.466 159.467 619.073 158.822 619.9 158.574C619.931 158.146 615.923 162.898 618.733 161.963C619.537 161.696 619.614 160.177 620.734 160.044C622.028 159.89 622.158 161.143 622.906 162.06C623.28 162.518 625 163.548 624.919 163.941C624.848 164.281 623.904 164.475 623.703 164.951C623.469 165.504 623.574 165.931 623.899 166.407C624.467 167.24 625.509 167.368 626.334 167.694C627.502 168.157 627.926 168.718 628.449 169.915C627.526 169.958 624.897 172.543 626.508 173.003C627.108 173.175 627.015 172.658 627.264 172.373C627.365 172.189 627.467 172.005 627.568 171.821C627.737 171.393 627.924 171.367 628.129 171.742C628.175 171.731 628.723 171.881 628.848 171.889C629.479 171.926 629.901 171.463 630.424 171.213C630.801 171.032 631.171 171.063 631.456 170.646C631.423 170.694 631.66 169.749 631.664 169.74C631.766 169.513 632.028 169.545 632.148 169.3C628.917 166.055 626.809 161.757 626.428 156.991C624.675 156.42 623.412 154.817 623.412 152.929V148.286C623.412 146.488 624.557 144.948 626.18 144.312C626.377 144.446 626.649 144.312 626.735 144.011C626.564 143.474 627.953 134.064 631.536 131.556C632.872 130.685 640.033 130.62 647.162 130.625C654.214 130.63 661.235 130.695 662.556 131.556C666.14 134.064 667.528 143.474 667.357 144.011C667.443 144.312 667.716 144.446 667.912 144.312Z" fill="#2E3257"/>
<mask id="mask6_3_2" style="mask-type:luminance" maskUnits="userSpaceOnUse" x="611" y="109" width="69" height="65">
<path fill-rule="evenodd" clip-rule="evenodd" d="M667.912 144.312C669.536 144.948 670.681 146.488 670.681 148.286V152.929C670.681 154.817 669.418 156.42 667.664 156.991C667.352 160.901 665.877 164.495 663.574 167.452C663.651 167.74 663.726 168.032 663.78 168.346C663.983 169.534 663.735 170.522 664.387 171.593C664.556 171.872 664.824 172.039 664.949 172.359C665.146 172.864 664.863 174 665.669 174C666.816 174 666.177 171.869 665.889 171.363C665.326 170.373 664.98 170.131 665.009 168.847C665.654 169.261 667.79 170.053 668.498 169.674C670.135 168.8 666.038 167.911 665.752 167.727C666.381 167.132 667.102 166.816 667.671 166.032C668.136 165.391 668.559 164.462 669.351 164.424C669.789 164.403 671.071 165.454 671.459 164.733C671.816 164.073 671.048 163.976 670.748 163.742C670.193 163.31 670.068 163.74 670.203 162.98C670.604 163.396 671.233 163.133 671.401 162.617C671.582 162.061 670.985 161.894 670.996 161.541C670.992 161.679 671.304 159.714 671.255 159.777C671.572 159.372 672.698 159.497 673.254 159.556C674.102 159.644 674.053 159.669 674.456 160.426C674.781 161.038 675.637 162.275 675.825 160.655C675.87 160.267 675.504 159.439 675.289 159.106C675.057 158.746 674.36 158.519 674.214 158.239C673.865 157.571 675.013 156.083 674.819 155.077C675.223 155.226 676.244 157.551 676.739 155.647C677 154.647 674.336 152.453 675.441 152.114C676.286 151.855 677.144 152.909 677.38 153.558C677.554 154.039 677.476 155.072 677.774 155.47C678.895 156.971 679.034 154.491 678.94 153.837C678.734 152.399 678.207 151.342 676.864 150.798C677.342 150.224 676.736 149.767 676.393 149.407C676.957 148.816 680.616 149.445 679.793 147.862C679.594 147.479 678.877 147.411 678.513 147.271C677.593 146.917 676.672 146.196 676.202 145.285C676.882 145.12 678.89 145.569 678.626 144.215C678.418 143.15 676.631 143.476 675.939 143.64C676.564 143.277 677.775 143.577 677.945 142.589C678.142 141.452 676.731 141.491 676.069 141.732C675.914 140.532 678.112 139.649 678.733 138.731C678.943 138.422 679.276 138.316 679.009 137.791C678.526 136.847 677.28 138.179 676.87 138.538C677.193 137.956 678.096 135.536 677.959 134.922C677.757 134.02 677.09 133.988 676.56 134.72C676.216 135.195 676.12 136.399 675.939 137.015C675.186 136.466 675.148 137.103 675.109 136.232C675.084 135.668 675.848 134.554 676.044 134.001C676.212 133.526 676.66 132.658 676.392 132.199C675.737 131.076 675.11 132.617 674.937 133.146C674.646 131.928 675.755 130.983 676.083 129.778C676.283 129.046 676.813 127.071 675.895 126.72C674.641 126.241 675.082 128.49 674.906 129.22C674.771 129.777 674.565 130.676 674.116 130.951C674.051 130.991 673.074 131.073 673.027 131.02C672.387 130.298 674.149 128.717 674.24 128.037C674.323 127.419 674.078 127.028 673.479 126.991C673.18 126.973 672.696 127.42 672.557 127.391C672.011 127.276 672.723 124.859 672.774 124.188C672.83 123.473 672.74 121.627 671.488 122.479C671.572 121.516 671.622 120.609 671.759 119.661C671.831 119.161 672.276 118.716 671.621 118.316C670.825 117.828 670.384 118.848 670.202 119.447C669.89 120.478 670.535 122.081 669.036 122.114C667.313 122.151 668.503 120.424 668.588 119.304C668.635 118.682 668.213 117.01 667.383 118.138C667.052 118.588 667.166 120.172 666.983 120.704C666.574 120.528 667.253 119.091 666.898 118.716C666.137 117.914 665.498 119.083 665.014 119.321C664.983 118.805 664.945 118.288 664.923 117.772C664.889 116.986 665.386 115.332 664.881 114.79C664.018 113.866 663.469 114.944 663.217 115.692C662.991 116.364 662.96 117.028 662.023 117.12C662.1 116.15 661.189 114.107 661.641 113.289C661.845 112.919 662.261 113.181 662.446 112.768C662.749 112.088 662.252 111.8 661.712 111.778C659.204 111.676 661.135 115.04 660.247 115.882C659.841 115.51 660.273 115.127 659.853 114.598C659.402 114.028 658.682 114.076 658.037 114.334C658.016 113.758 658.91 109.72 656.9 111.542C656.4 111.996 656.54 112.754 656.274 113.287C656.018 113.803 655.392 114.572 655.041 114.991C654.852 114.253 655.141 113.338 655.343 112.61C655.484 112.105 656.426 110.537 656.225 110.023C655.642 108.535 653.89 110.994 653.429 111.392C652.845 111.895 650.519 113.551 649.772 113.049C649.513 112.875 649.747 112.231 649.393 111.932C649.22 111.786 648.478 111.717 648.267 111.736C648.399 111.202 648.139 110.512 647.508 110.697C646.714 110.929 647.058 112.067 646.555 112.483C645.621 113.256 644.511 111.729 643.51 111.772C643.663 111.145 644.797 108.892 642.994 109.577C642.534 109.752 642.207 110.774 642.092 111.199C641.8 112.283 642.011 112.482 640.797 112.788C640.892 112.159 640.723 111.378 641.036 110.816C641.293 110.356 642.626 109.158 641.207 109.008C639.456 108.824 639.629 111.748 639.414 112.737C637.861 111.826 636.839 113.129 635.913 114.255C636.078 113.749 636.487 108.699 634.818 110.242C634.341 110.684 634.869 111.337 634.837 111.841C634.808 112.299 634.653 112.706 634.469 113.134C634.176 113.82 633.834 114.522 633.371 115.106C632.79 115.842 632.996 115.9 632.33 115.4C631.434 114.731 631.009 113.035 631.053 111.998C631.086 111.227 631.495 109.66 630.173 110.023C628.878 110.379 629.564 112.871 629.694 113.756C629.835 114.716 629.929 115.698 629.762 116.675C628.66 115.586 628.499 117.855 628.278 118.242C627.917 118.876 627.219 119.187 626.677 119.62C626.382 118.622 627.566 117.778 627.331 116.984C626.89 115.497 625.643 117.597 625.369 118.009C625.141 118.353 624.396 120.31 624.126 120.485C623.748 120.732 621.318 119.583 621.072 119.364C620.621 118.962 620.785 117.838 620.217 117.582C618.474 116.797 619.504 119.63 619.846 120.216C620.739 121.746 621.144 123.593 620.935 125.396C620.618 125.288 620.228 124.927 620.024 124.654C619.626 124.122 619.771 123.273 619.356 122.873C618.142 121.701 617.999 123.901 618.098 124.584C618.283 125.865 618.944 126.281 619.493 127.346C619.998 128.328 619.329 129.513 619.188 130.605C617.921 129.427 612.468 130.411 613.871 132.213C614.601 133.153 615.466 131.364 616.308 131.409C617.816 131.49 618.61 133.3 618.511 134.569C618.328 133.891 617.617 133.225 617.128 134.053C616.797 134.615 617.362 135.575 617.635 136.132C617.301 135.974 615.652 135.232 615.329 135.361C614.059 135.866 615.809 136.843 616.266 137.039C617.826 137.706 618.809 138.438 619.294 140.25C618.42 139.979 618.572 139.579 617.982 139.163C617.441 138.781 617.339 138.978 616.841 138.853C615.969 138.635 614.832 138.344 613.846 138.74C613.119 139.032 611.893 139.922 611.665 140.758C611.385 141.784 611.977 142.045 612.737 141.523C613.642 140.902 613.807 139.7 615.169 139.751C615.822 139.776 616.469 140.107 616.882 140.582C617.19 140.936 617.371 141.45 617.665 141.83C617.924 142.166 618.612 142.637 618.757 142.992C619.281 144.276 618.286 145.419 617.618 146.319C617.464 146.121 616.334 145.691 616.1 145.648C615.015 145.447 614.61 145.933 615.289 146.902C615.502 147.208 615.952 147.336 616.188 147.614C616.451 147.925 616.599 148.4 616.859 148.737C617.374 149.403 618.01 149.745 618.624 150.281C618.397 150.427 618.422 150.058 618.217 150.134C618.068 150.19 617.808 150.079 617.62 150.139C617.314 150.237 617.355 150.753 617.159 150.828C615.941 151.298 614.712 149.537 613.619 149.48C613.023 149.449 612.52 149.835 612.806 150.559C613.005 151.063 613.866 151.337 614.297 151.548C615.496 152.135 616.689 152.572 617.971 152.121C619.004 152.992 620.245 153.422 621.543 153.434C620.8 153.79 620.066 154.232 619.807 155.12C619.368 154.681 618.29 152.637 617.726 154.241C617.341 155.343 619.101 156.695 619.913 157.191C618.969 157.461 618.185 157.515 617.225 157.408C616.724 157.352 615.624 156.703 616.03 158.032C616.466 159.467 619.073 158.822 619.9 158.574C619.931 158.146 615.923 162.898 618.733 161.963C619.537 161.696 619.614 160.177 620.734 160.044C622.028 159.89 622.158 161.143 622.906 162.06C623.28 162.518 625 163.548 624.919 163.941C624.848 164.281 623.904 164.475 623.703 164.951C623.469 165.504 623.574 165.931 623.899 166.407C624.467 167.24 625.509 167.368 626.334 167.694C627.502 168.157 627.926 168.718 628.449 169.915C627.526 169.958 624.897 172.543 626.508 173.003C627.108 173.175 627.015 172.658 627.264 172.373C627.365 172.189 627.467 172.005 627.568 171.821C627.737 171.393 627.924 171.367 628.129 171.742C628.175 171.731 628.723 171.881 628.848 171.889C629.479 171.926 629.901 171.463 630.424 171.213C630.801 171.032 631.171 171.063 631.456 170.646C631.423 170.694 631.66 169.749 631.664 169.74C631.766 169.513 632.028 169.545 632.148 169.3C628.917 166.055 626.809 161.757 626.428 156.991C624.675 156.42 623.412 154.817 623.412 152.929V148.286C623.412 146.488 624.557 144.948 626.18 144.312C626.377 144.446 626.649 144.312 626.735 144.011C626.564 143.474 627.953 134.064 631.536 131.556C632.872 130.685 640.033 130.62 647.162 130.625C654.214 130.63 661.235 130.695 662.556 131.556C666.14 134.064 667.528 143.474 667.357 144.011C667.443 144.312 667.716 144.446 667.912 144.312Z" fill="white"/>
</mask>
<g mask="url(#mask6_3_2)">
<path d="M708.718 109H611.225V209H708.718V109Z" fill="#4A312C"/>
</g>
</g>
</g>
</g>
<rect x="358" y="109" width="229" height="100" fill="#22B14C"/>
<path d="M389.531 183.344C389.531 184.719 389.266 186 388.734 187.188C388.203 188.375 387.484 189.422 386.578 190.328C385.703 191.203 384.672 191.906 383.484 192.438C382.297 192.938 381.031 193.188 379.688 193.188C378.312 193.188 377.031 192.938 375.844 192.438C374.656 191.906 373.609 191.203 372.703 190.328C371.828 189.422 371.125 188.375 370.594 187.188C370.094 186 369.844 184.719 369.844 183.344C369.844 182 370.094 180.719 370.594 179.5C371.125 178.281 371.828 177.234 372.703 176.359C373.609 175.453 374.656 174.734 375.844 174.203C377.031 173.672 378.312 173.406 379.688 173.406C381.031 173.406 382.297 173.672 383.484 174.203C384.672 174.734 385.703 175.453 386.578 176.359C387.484 177.234 388.203 178.281 388.734 179.5C389.266 180.719 389.531 182 389.531 183.344ZM439.125 127.094L436.5 146.875C435.594 146.625 434.688 146.453 433.781 146.359C432.875 146.266 431.969 146.219 431.062 146.219C428.75 146.219 426.547 146.531 424.453 147.156C422.359 147.75 420.5 148.672 418.875 149.922C417.281 151.172 416 152.734 415.031 154.609C414.094 156.484 413.625 158.688 413.625 161.219C413.625 162.844 413.875 164.25 414.375 165.438C414.906 166.625 415.641 167.609 416.578 168.391C417.516 169.172 418.625 169.75 419.906 170.125C421.188 170.5 422.594 170.688 424.125 170.688C425.281 170.688 426.484 170.562 427.734 170.312C428.984 170.062 430.219 169.734 431.438 169.328C432.656 168.922 433.844 168.453 435 167.922C436.156 167.391 437.219 166.844 438.188 166.281L436.312 188.312C435.094 188.938 433.766 189.5 432.328 190C430.922 190.469 429.469 190.891 427.969 191.266C426.469 191.609 424.969 191.875 423.469 192.062C421.969 192.25 420.531 192.344 419.156 192.344C415.188 192.344 411.484 191.609 408.047 190.141C404.609 188.672 401.625 186.656 399.094 184.094C396.562 181.531 394.562 178.516 393.094 175.047C391.656 171.547 390.938 167.781 390.938 163.75C390.938 158.406 391.703 153.375 393.234 148.656C394.766 143.906 397.016 139.75 399.984 136.188C402.953 132.625 406.625 129.812 411 127.75C415.406 125.688 420.469 124.656 426.188 124.656C428.344 124.656 430.547 124.828 432.797 125.172C435.078 125.516 437.188 126.156 439.125 127.094ZM499.453 159.906C499.453 162.75 499.125 165.5 498.469 168.156C497.812 170.781 496.859 173.25 495.609 175.562C494.391 177.875 492.891 180 491.109 181.938C489.359 183.844 487.375 185.484 485.156 186.859C482.969 188.234 480.578 189.312 477.984 190.094C475.391 190.844 472.641 191.219 469.734 191.219C466.922 191.219 464.234 190.859 461.672 190.141C459.141 189.422 456.766 188.422 454.547 187.141C452.328 185.828 450.312 184.266 448.5 182.453C446.719 180.609 445.188 178.578 443.906 176.359C442.656 174.109 441.672 171.703 440.953 169.141C440.266 166.578 439.922 163.906 439.922 161.125C439.922 158.406 440.25 155.75 440.906 153.156C441.562 150.531 442.5 148.062 443.719 145.75C444.969 143.438 446.469 141.312 448.219 139.375C449.969 137.438 451.922 135.766 454.078 134.359C456.266 132.953 458.625 131.859 461.156 131.078C463.688 130.297 466.359 129.906 469.172 129.906C473.703 129.906 477.828 130.609 481.547 132.016C485.297 133.422 488.484 135.438 491.109 138.062C493.766 140.656 495.812 143.812 497.25 147.531C498.719 151.219 499.453 155.344 499.453 159.906ZM478.641 161.125C478.641 159.781 478.438 158.484 478.031 157.234C477.656 155.953 477.094 154.828 476.344 153.859C475.594 152.859 474.656 152.062 473.531 151.469C472.438 150.844 471.172 150.531 469.734 150.531C468.266 150.531 466.953 150.797 465.797 151.328C464.641 151.859 463.641 152.594 462.797 153.531C461.984 154.438 461.359 155.516 460.922 156.766C460.484 157.984 460.266 159.281 460.266 160.656C460.266 161.969 460.453 163.281 460.828 164.594C461.203 165.906 461.766 167.094 462.516 168.156C463.266 169.219 464.188 170.078 465.281 170.734C466.406 171.391 467.703 171.719 469.172 171.719C470.641 171.719 471.953 171.438 473.109 170.875C474.297 170.281 475.297 169.5 476.109 168.531C476.922 167.531 477.547 166.391 477.984 165.109C478.422 163.828 478.641 162.5 478.641 161.125ZM575.203 124.656L570.891 193.469L549.516 194.406L549.703 158.125L540.047 187.375H531.797L524.391 161.219L524.297 191.594L502.641 192.25L503.578 127.469L527.672 126.531L537.234 157.562L549.984 124.656H575.203Z" fill="white"/>
<rect y="109" width="348" height="100" fill="#22B14C"/>
<path d="M69.3281 147.812C69.3281 150.25 69.1094 152.469 68.6719 154.469C68.2656 156.438 67.6094 158.25 66.7031 159.906C65.7969 161.562 64.625 163.094 63.1875 164.5C61.75 165.906 60.0156 167.25 57.9844 168.531L69.1406 188.406L48.0469 192.531L40.8281 172.562L35.0156 172.75L34.1719 192.25H14.0156C14.1719 185.125 14.3125 178.031 14.4375 170.969C14.5938 163.906 14.7656 156.812 14.9531 149.688C15.0156 146.094 15.0781 142.531 15.1406 139C15.2031 135.469 15.3281 131.906 15.5156 128.312C17.7031 127.5 19.8594 126.828 21.9844 126.297C24.1094 125.766 26.2344 125.359 28.3594 125.078C30.5156 124.766 32.6875 124.562 34.875 124.469C37.0938 124.344 39.3594 124.281 41.6719 124.281C45.2344 124.281 48.6719 124.781 51.9844 125.781C55.3281 126.75 58.2812 128.219 60.8438 130.188C63.4062 132.156 65.4531 134.609 66.9844 137.547C68.5469 140.484 69.3281 143.906 69.3281 147.812ZM48.3281 149.312C48.3281 148 48.1406 146.797 47.7656 145.703C47.4219 144.609 46.8906 143.672 46.1719 142.891C45.4844 142.078 44.6094 141.453 43.5469 141.016C42.5156 140.547 41.2969 140.312 39.8906 140.312C39.2656 140.312 38.6562 140.359 38.0625 140.453C37.4688 140.516 36.8906 140.625 36.3281 140.781L35.5781 158.219H36.7031C38.0469 158.219 39.4062 158.047 40.7812 157.703C42.1875 157.359 43.4375 156.828 44.5312 156.109C45.6562 155.391 46.5625 154.469 47.25 153.344C47.9688 152.219 48.3281 150.875 48.3281 149.312ZM131.719 188.969L108.469 191.969L105.656 181.375H94.9688L92.625 191.969L68.7188 189.625L87.375 127.188L113.438 125.875L131.719 188.969ZM103.969 167.031L100.406 150.719L96.9375 167.031H103.969ZM205.172 124.656L200.859 193.469L179.484 194.406L179.672 158.125L170.016 187.375H161.766L154.359 161.219L154.266 191.594L132.609 192.25L133.547 127.469L157.641 126.531L167.203 157.562L179.953 124.656H205.172ZM265.922 159.906C265.922 162.75 265.594 165.5 264.938 168.156C264.281 170.781 263.328 173.25 262.078 175.562C260.859 177.875 259.359 180 257.578 181.938C255.828 183.844 253.844 185.484 251.625 186.859C249.438 188.234 247.047 189.312 244.453 190.094C241.859 190.844 239.109 191.219 236.203 191.219C233.391 191.219 230.703 190.859 228.141 190.141C225.609 189.422 223.234 188.422 221.016 187.141C218.797 185.828 216.781 184.266 214.969 182.453C213.188 180.609 211.656 178.578 210.375 176.359C209.125 174.109 208.141 171.703 207.422 169.141C206.734 166.578 206.391 163.906 206.391 161.125C206.391 158.406 206.719 155.75 207.375 153.156C208.031 150.531 208.969 148.062 210.188 145.75C211.438 143.438 212.938 141.312 214.688 139.375C216.438 137.438 218.391 135.766 220.547 134.359C222.734 132.953 225.094 131.859 227.625 131.078C230.156 130.297 232.828 129.906 235.641 129.906C240.172 129.906 244.297 130.609 248.016 132.016C251.766 133.422 254.953 135.438 257.578 138.062C260.234 140.656 262.281 143.812 263.719 147.531C265.188 151.219 265.922 155.344 265.922 159.906ZM245.109 161.125C245.109 159.781 244.906 158.484 244.5 157.234C244.125 155.953 243.562 154.828 242.812 153.859C242.062 152.859 241.125 152.062 240 151.469C238.906 150.844 237.641 150.531 236.203 150.531C234.734 150.531 233.422 150.797 232.266 151.328C231.109 151.859 230.109 152.594 229.266 153.531C228.453 154.438 227.828 155.516 227.391 156.766C226.953 157.984 226.734 159.281 226.734 160.656C226.734 161.969 226.922 163.281 227.297 164.594C227.672 165.906 228.234 167.094 228.984 168.156C229.734 169.219 230.656 170.078 231.75 170.734C232.875 171.391 234.172 171.719 235.641 171.719C237.109 171.719 238.422 171.438 239.578 170.875C240.766 170.281 241.766 169.5 242.578 168.531C243.391 167.531 244.016 166.391 244.453 165.109C244.891 163.828 245.109 162.5 245.109 161.125ZM332.953 125.781L329.578 189.344L305.016 191.594L291.891 157.562L289.828 192.25H268.734L270.422 125.781L293.859 124.656L310.078 158.406L310.828 126.531L332.953 125.781Z" fill="white"/>
<rect width="697" height="100" fill="#22B14C"/>
<path d="M54.5312 43.7705C54.5312 46.1387 54.1772 48.2383 53.4692 50.0693C52.7612 51.9004 51.7847 53.4995 50.5396 54.8667C49.3188 56.2339 47.8784 57.3936 46.2183 58.3457C44.5581 59.2979 42.7759 60.0791 40.8716 60.6895C38.9917 61.2754 37.0386 61.7148 35.0122 62.0078C32.9858 62.2764 30.9961 62.4229 29.043 62.4473V79.5127H11.9775C11.9775 73.9219 11.9897 68.3555 12.0142 62.8135C12.0386 57.2715 12.0752 51.6807 12.124 46.041C12.1729 43.0625 12.1851 40.084 12.1606 37.1055C12.1362 34.127 12.1973 31.124 12.3438 28.0967C15.4688 27.1689 18.5938 26.4731 21.7188 26.0093C24.8438 25.5454 28.0664 25.3135 31.3867 25.3135C33.2666 25.3135 35.1465 25.4722 37.0264 25.7896C38.9062 26.0825 40.7007 26.5586 42.4097 27.2178C44.1431 27.877 45.7422 28.707 47.207 29.708C48.6963 30.6846 49.978 31.8564 51.0522 33.2236C52.1265 34.5908 52.9688 36.1533 53.5791 37.9111C54.2139 39.6445 54.5312 41.5977 54.5312 43.7705ZM38.2715 45.0156C38.2715 43.4287 37.7832 42.1958 36.8066 41.3169C35.8545 40.4136 34.6094 39.9619 33.0713 39.9619C32.5586 39.9619 32.0215 40.0107 31.46 40.1084C30.9229 40.1816 30.4102 40.2793 29.9219 40.4014L29.4824 51.0947C29.8242 51.1436 30.1538 51.168 30.4712 51.168C30.7886 51.168 31.1182 51.168 31.46 51.168C32.3389 51.168 33.1812 51.0215 33.9868 50.7285C34.8169 50.4355 35.5493 50.0205 36.1841 49.4834C36.8188 48.9219 37.3193 48.2749 37.6855 47.5425C38.0762 46.7856 38.2715 45.9434 38.2715 45.0156ZM99.4653 43.6973C99.4653 45.6016 99.2944 47.335 98.9526 48.8975C98.6353 50.4355 98.1226 51.8516 97.4146 53.1455C96.7065 54.4395 95.791 55.6357 94.668 56.7344C93.5449 57.833 92.1899 58.8828 90.603 59.8838L99.3188 75.4111L82.8394 78.6338L77.1997 63.0332L72.6587 63.1797L71.9995 78.4141H56.2524C56.3745 72.8477 56.4844 67.3057 56.582 61.7881C56.7041 56.2705 56.8384 50.7285 56.9849 45.1621C57.0337 42.3545 57.0825 39.5713 57.1313 36.8125C57.1802 34.0537 57.2778 31.2705 57.4243 28.4629C59.1333 27.8281 60.8179 27.3032 62.478 26.8882C64.1382 26.4731 65.7983 26.1558 67.4585 25.936C69.1431 25.6919 70.8398 25.5332 72.5488 25.46C74.2822 25.3623 76.0522 25.3135 77.8589 25.3135C80.6421 25.3135 83.3276 25.7041 85.9155 26.4854C88.5278 27.2422 90.835 28.3896 92.8369 29.9277C94.8389 31.4658 96.438 33.3823 97.6343 35.6772C98.855 37.9722 99.4653 40.6455 99.4653 43.6973ZM83.0591 44.8691C83.0591 43.8438 82.9126 42.9038 82.6196 42.0493C82.3511 41.1948 81.936 40.4624 81.3745 39.8521C80.8374 39.2173 80.1538 38.729 79.3237 38.3872C78.5181 38.021 77.5659 37.8379 76.4673 37.8379C75.979 37.8379 75.5029 37.8745 75.0391 37.9478C74.5752 37.9966 74.1235 38.082 73.6841 38.2041L73.0981 51.8271H73.9771C75.0269 51.8271 76.0889 51.6929 77.1631 51.4243C78.2617 51.1558 79.2383 50.7407 80.0928 50.1792C80.9717 49.6177 81.6797 48.8975 82.2168 48.0186C82.7783 47.1396 83.0591 46.0898 83.0591 44.8691ZM146.78 53.1455C146.78 55.3672 146.523 57.5156 146.011 59.5908C145.498 61.6416 144.753 63.5703 143.777 65.377C142.825 67.1836 141.653 68.8438 140.261 70.3574C138.894 71.8467 137.344 73.1284 135.61 74.2026C133.901 75.2769 132.034 76.1191 130.007 76.7295C127.981 77.3154 125.833 77.6084 123.562 77.6084C121.365 77.6084 119.265 77.3276 117.263 76.7661C115.286 76.2046 113.43 75.4233 111.697 74.4224C109.963 73.397 108.389 72.1763 106.973 70.7603C105.581 69.3198 104.385 67.7329 103.384 65.9995C102.407 64.2417 101.638 62.3618 101.077 60.3599C100.54 58.3579 100.271 56.2705 100.271 54.0977C100.271 51.9736 100.527 49.8984 101.04 47.8721C101.553 45.8213 102.285 43.8926 103.237 42.0859C104.214 40.2793 105.386 38.6191 106.753 37.1055C108.12 35.5918 109.646 34.2856 111.331 33.187C113.04 32.0884 114.883 31.2339 116.86 30.6235C118.838 30.0132 120.925 29.708 123.123 29.708C126.663 29.708 129.885 30.2573 132.791 31.356C135.72 32.4546 138.21 34.0293 140.261 36.0801C142.336 38.1064 143.936 40.5723 145.059 43.4775C146.206 46.3584 146.78 49.5811 146.78 53.1455ZM130.52 54.0977C130.52 53.0479 130.361 52.0347 130.044 51.0581C129.751 50.0571 129.312 49.1782 128.726 48.4214C128.14 47.6401 127.407 47.0176 126.528 46.5537C125.674 46.0654 124.685 45.8213 123.562 45.8213C122.415 45.8213 121.389 46.0288 120.486 46.4438C119.583 46.8589 118.801 47.4326 118.142 48.165C117.507 48.873 117.019 49.7153 116.677 50.6919C116.335 51.644 116.165 52.6572 116.165 53.7314C116.165 54.7568 116.311 55.7822 116.604 56.8076C116.897 57.833 117.336 58.7607 117.922 59.5908C118.508 60.4209 119.229 61.0923 120.083 61.605C120.962 62.1177 121.975 62.374 123.123 62.374C124.27 62.374 125.295 62.1543 126.199 61.7148C127.126 61.251 127.908 60.6406 128.542 59.8838C129.177 59.1025 129.666 58.2114 130.007 57.2104C130.349 56.2095 130.52 55.1719 130.52 54.0977ZM193.545 71.5293C192.397 72.9697 190.981 74.2271 189.297 75.3013C187.612 76.3755 185.806 77.2666 183.877 77.9746C181.948 78.6826 179.971 79.2075 177.944 79.5493C175.918 79.9155 173.989 80.0986 172.158 80.0986C168.618 80.0986 165.359 79.4639 162.38 78.1943C159.402 76.9248 156.826 75.1792 154.653 72.9575C152.505 70.7114 150.82 68.0747 149.6 65.0474C148.379 62.02 147.769 58.7607 147.769 55.2695C147.769 52.6084 148.074 50.0083 148.684 47.4692C149.294 44.9058 150.161 42.501 151.284 40.2549C152.432 37.9844 153.823 35.9092 155.459 34.0293C157.095 32.125 158.95 30.4893 161.025 29.1221C163.101 27.7549 165.371 26.6929 167.837 25.936C170.303 25.1792 172.939 24.8008 175.747 24.8008C176.797 24.8008 177.92 24.8496 179.116 24.9473C180.312 25.0205 181.497 25.167 182.668 25.3867C183.865 25.582 185.024 25.8628 186.147 26.229C187.271 26.5952 188.296 27.0469 189.224 27.584L188.198 41.5732C186.831 41.0605 185.415 40.7188 183.95 40.5479C182.51 40.3525 181.094 40.2549 179.702 40.2549C177.749 40.2549 175.918 40.5601 174.209 41.1704C172.524 41.7563 171.047 42.6108 169.778 43.7339C168.533 44.8569 167.544 46.2241 166.812 47.8354C166.079 49.4468 165.713 51.2656 165.713 53.292C165.713 54.5615 165.884 55.7944 166.226 56.9907C166.567 58.1626 167.08 59.2124 167.764 60.1401C168.472 61.0435 169.338 61.7759 170.364 62.3374C171.414 62.8989 172.622 63.1797 173.989 63.1797C174.917 63.1797 175.869 63.0576 176.846 62.8135C177.847 62.5693 178.701 62.1543 179.409 61.5684L179.556 58.7119L170.767 58.5654L171.206 47.5791C174.844 47.457 178.481 47.3594 182.119 47.2861C185.757 47.1885 189.419 47.0664 193.105 46.9199L193.545 71.5293ZM239.285 43.6973C239.285 45.6016 239.114 47.335 238.772 48.8975C238.455 50.4355 237.942 51.8516 237.234 53.1455C236.526 54.4395 235.61 55.6357 234.487 56.7344C233.364 57.833 232.009 58.8828 230.422 59.8838L239.138 75.4111L222.659 78.6338L217.019 63.0332L212.478 63.1797L211.819 78.4141H196.072C196.194 72.8477 196.304 67.3057 196.401 61.7881C196.523 56.2705 196.658 50.7285 196.804 45.1621C196.853 42.3545 196.902 39.5713 196.951 36.8125C197 34.0537 197.097 31.2705 197.244 28.4629C198.953 27.8281 200.637 27.3032 202.297 26.8882C203.958 26.4731 205.618 26.1558 207.278 25.936C208.962 25.6919 210.659 25.5332 212.368 25.46C214.102 25.3623 215.872 25.3135 217.678 25.3135C220.461 25.3135 223.147 25.7041 225.735 26.4854C228.347 27.2422 230.654 28.3896 232.656 29.9277C234.658 31.4658 236.257 33.3823 237.454 35.6772C238.674 37.9722 239.285 40.6455 239.285 43.6973ZM222.878 44.8691C222.878 43.8438 222.732 42.9038 222.439 42.0493C222.17 41.1948 221.755 40.4624 221.194 39.8521C220.657 39.2173 219.973 38.729 219.143 38.3872C218.337 38.021 217.385 37.8379 216.287 37.8379C215.798 37.8379 215.322 37.8745 214.858 37.9478C214.395 37.9966 213.943 38.082 213.503 38.2041L212.917 51.8271H213.796C214.846 51.8271 215.908 51.6929 216.982 51.4243C218.081 51.1558 219.058 50.7407 219.912 50.1792C220.791 49.6177 221.499 48.8975 222.036 48.0186C222.598 47.1396 222.878 46.0898 222.878 44.8691ZM288.027 75.8506L269.863 78.1943L267.666 69.918H259.316L257.485 78.1943L238.809 76.3633L253.384 27.584L273.745 26.5586L288.027 75.8506ZM266.348 58.7119L263.564 45.9678L260.854 58.7119H266.348ZM345.413 25.6064L342.043 79.3662L325.344 80.0986L325.491 51.7539L317.947 74.6055H311.501L305.715 54.1709L305.642 77.9014L288.723 78.4141L289.456 27.8037L308.279 27.0713L315.75 51.3145L325.71 25.6064H345.413ZM393.643 75.8506L375.479 78.1943L373.281 69.918H364.932L363.101 78.1943L344.424 76.3633L358.999 27.584L379.36 26.5586L393.643 75.8506ZM371.963 58.7119L369.18 45.9678L366.47 58.7119H371.963ZM421.987 87.5693C421.987 88.9854 421.755 90.1816 421.292 91.1582C420.852 92.1348 420.229 92.9282 419.424 93.5386C418.618 94.1733 417.666 94.625 416.567 94.8936C415.469 95.1865 414.272 95.333 412.979 95.333C412.515 95.333 411.99 95.2964 411.404 95.2231C410.818 95.1743 410.22 95.0767 409.609 94.9302C409.023 94.8081 408.45 94.6372 407.888 94.4175C407.327 94.2222 406.851 93.9658 406.46 93.6484L409.683 87.8623C409.976 88.0088 410.317 88.1309 410.708 88.2285C411.099 88.3262 411.465 88.375 411.807 88.375C412.246 88.375 412.686 88.2407 413.125 87.9722C413.564 87.728 413.784 87.3496 413.784 86.8369C413.784 86.4707 413.674 86.1655 413.455 85.9214C413.235 85.7017 412.954 85.5186 412.612 85.3721C412.295 85.2256 411.953 85.1279 411.587 85.0791C411.221 85.0303 410.903 85.0059 410.635 85.0059C410.146 85.0059 409.658 85.0303 409.17 85.0791C408.682 85.1523 408.193 85.25 407.705 85.3721L408.071 77.6816C405.728 77.0469 403.579 76.0581 401.626 74.7153C399.673 73.3726 397.988 71.7612 396.572 69.8813C395.156 68.0015 394.058 65.9019 393.276 63.5825C392.495 61.2388 392.104 58.7607 392.104 56.1484C392.104 51.9736 392.703 48.043 393.899 44.3564C395.095 40.6455 396.853 37.3984 399.172 34.6152C401.492 31.832 404.36 29.6348 407.778 28.0234C411.221 26.4121 415.176 25.6064 419.644 25.6064C421.328 25.6064 423.049 25.7407 424.807 26.0093C426.589 26.2778 428.237 26.7783 429.751 27.5107L427.7 42.9648C426.992 42.7695 426.284 42.6353 425.576 42.562C424.868 42.4888 424.16 42.4521 423.452 42.4521C421.646 42.4521 419.924 42.6963 418.289 43.1846C416.653 43.6484 415.2 44.3687 413.931 45.3452C412.686 46.3218 411.685 47.5425 410.928 49.0073C410.195 50.4722 409.829 52.1934 409.829 54.1709C409.829 55.4404 410.024 56.5391 410.415 57.4668C410.83 58.3945 411.404 59.1636 412.136 59.7739C412.869 60.3843 413.735 60.8359 414.736 61.1289C415.737 61.4219 416.836 61.5684 418.032 61.5684C418.936 61.5684 419.875 61.4707 420.852 61.2754C421.829 61.0801 422.793 60.8237 423.745 60.5063C424.697 60.189 425.625 59.8228 426.528 59.4077C427.432 58.9927 428.262 58.5654 429.019 58.126L427.554 75.3379C426.626 75.8262 425.613 76.2656 424.514 76.6562C423.44 77.0225 422.329 77.3398 421.182 77.6084C420.059 77.877 418.911 78.0845 417.739 78.231C416.592 78.3774 415.493 78.4629 414.443 78.4873V80.3184C415.518 80.3672 416.519 80.5625 417.446 80.9043C418.374 81.2461 419.167 81.7222 419.827 82.3325C420.51 82.9673 421.035 83.7241 421.401 84.603C421.792 85.4819 421.987 86.4707 421.987 87.5693ZM478.311 75.8506L460.146 78.1943L457.949 69.918H449.6L447.769 78.1943L429.092 76.3633L443.667 27.584L464.028 26.5586L478.311 75.8506ZM456.631 58.7119L453.848 45.9678L451.138 58.7119H456.631ZM468.35 14.8398C468.35 16.2559 468.093 17.5742 467.581 18.7949C467.068 20.0156 466.36 21.0776 465.457 21.981C464.578 22.8843 463.528 23.5923 462.307 24.105C461.111 24.6177 459.829 24.874 458.462 24.874C457.388 24.874 456.472 24.6787 455.715 24.2881C454.958 23.8975 454.312 23.4092 453.774 22.8232C453.262 22.2373 452.81 21.6025 452.419 20.9189C452.053 20.2354 451.711 19.6006 451.394 19.0146C451.077 18.4287 450.747 17.9404 450.405 17.5498C450.088 17.1592 449.722 16.9639 449.307 16.9639C449.038 16.9639 448.806 17.0493 448.611 17.2202C448.416 17.3667 448.257 17.5498 448.135 17.7695C448.037 17.9893 447.964 18.2334 447.915 18.502C447.866 18.7705 447.842 19.0146 447.842 19.2344C447.842 19.9668 447.927 20.687 448.098 21.395C448.293 22.0786 448.525 22.75 448.794 23.4092L439.858 24.1416C439.565 23.1162 439.358 22.0908 439.236 21.0654C439.114 20.0156 439.053 18.9902 439.053 17.9893C439.053 16.5 439.248 15.1084 439.639 13.8145C440.029 12.5205 440.603 11.3975 441.36 10.4453C442.141 9.49316 443.093 8.74854 444.216 8.21143C445.364 7.6499 446.694 7.36914 448.208 7.36914C449.551 7.36914 450.662 7.57666 451.541 7.9917C452.419 8.40674 453.152 8.91943 453.738 9.52979C454.324 10.1401 454.775 10.8115 455.093 11.5439C455.435 12.2764 455.74 12.9478 456.008 13.5581C456.277 14.1685 456.533 14.6812 456.777 15.0962C457.021 15.5112 457.339 15.7188 457.729 15.7188C458.218 15.7188 458.596 15.499 458.865 15.0596C459.133 14.6201 459.268 14.1807 459.268 13.7412C459.268 13.0088 459.121 12.3008 458.828 11.6172C458.535 10.9092 458.218 10.2744 457.876 9.71289L466.958 8.24805C467.373 9.32227 467.703 10.4087 467.947 11.5073C468.215 12.5815 468.35 13.6924 468.35 14.8398ZM522.952 53.1455C522.952 55.3672 522.695 57.5156 522.183 59.5908C521.67 61.6416 520.925 63.5703 519.949 65.377C518.997 67.1836 517.825 68.8438 516.433 70.3574C515.066 71.8467 513.516 73.1284 511.782 74.2026C510.073 75.2769 508.206 76.1191 506.179 76.7295C504.153 77.3154 502.004 77.6084 499.734 77.6084C497.537 77.6084 495.437 77.3276 493.435 76.7661C491.458 76.2046 489.602 75.4233 487.869 74.4224C486.135 73.397 484.561 72.1763 483.145 70.7603C481.753 69.3198 480.557 67.7329 479.556 65.9995C478.579 64.2417 477.81 62.3618 477.249 60.3599C476.711 58.3579 476.443 56.2705 476.443 54.0977C476.443 51.9736 476.699 49.8984 477.212 47.8721C477.725 45.8213 478.457 43.8926 479.409 42.0859C480.386 40.2793 481.558 38.6191 482.925 37.1055C484.292 35.5918 485.818 34.2856 487.502 33.187C489.211 32.0884 491.055 31.2339 493.032 30.6235C495.01 30.0132 497.097 29.708 499.294 29.708C502.834 29.708 506.057 30.2573 508.962 31.356C511.892 32.4546 514.382 34.0293 516.433 36.0801C518.508 38.1064 520.107 40.5723 521.23 43.4775C522.378 46.3584 522.952 49.5811 522.952 53.1455ZM506.692 54.0977C506.692 53.0479 506.533 52.0347 506.216 51.0581C505.923 50.0571 505.483 49.1782 504.897 48.4214C504.312 47.6401 503.579 47.0176 502.7 46.5537C501.846 46.0654 500.857 45.8213 499.734 45.8213C498.586 45.8213 497.561 46.0288 496.658 46.4438C495.754 46.8589 494.973 47.4326 494.314 48.165C493.679 48.873 493.191 49.7153 492.849 50.6919C492.507 51.644 492.336 52.6572 492.336 53.7314C492.336 54.7568 492.483 55.7822 492.776 56.8076C493.069 57.833 493.508 58.7607 494.094 59.5908C494.68 60.4209 495.4 61.0923 496.255 61.605C497.134 62.1177 498.147 62.374 499.294 62.374C500.442 62.374 501.467 62.1543 502.371 61.7148C503.298 61.251 504.08 60.6406 504.714 59.8838C505.349 59.1025 505.837 58.2114 506.179 57.2104C506.521 56.2095 506.692 55.1719 506.692 54.0977ZM576.455 27.5107L574.404 42.9648C573.696 42.7695 572.988 42.6353 572.28 42.562C571.572 42.4888 570.864 42.4521 570.156 42.4521C568.35 42.4521 566.628 42.6963 564.993 43.1846C563.357 43.6484 561.904 44.3687 560.635 45.3452C559.39 46.3218 558.389 47.5425 557.632 49.0073C556.899 50.4722 556.533 52.1934 556.533 54.1709C556.533 55.4404 556.729 56.5391 557.119 57.4668C557.534 58.3945 558.108 59.1636 558.84 59.7739C559.573 60.3843 560.439 60.8359 561.44 61.1289C562.441 61.4219 563.54 61.5684 564.736 61.5684C565.64 61.5684 566.58 61.4707 567.556 61.2754C568.533 61.0801 569.497 60.8237 570.449 60.5063C571.401 60.189 572.329 59.8228 573.232 59.4077C574.136 58.9927 574.966 58.5654 575.723 58.126L574.258 75.3379C573.306 75.8262 572.268 76.2656 571.145 76.6562C570.046 77.0225 568.911 77.3521 567.739 77.645C566.567 77.9136 565.396 78.1211 564.224 78.2676C563.052 78.4141 561.929 78.4873 560.854 78.4873C557.754 78.4873 554.861 77.9136 552.175 76.7661C549.49 75.6187 547.158 74.0439 545.181 72.042C543.203 70.04 541.641 67.6841 540.493 64.9741C539.37 62.2397 538.809 59.2979 538.809 56.1484C538.809 51.9736 539.407 48.043 540.603 44.3564C541.799 40.6455 543.557 37.3984 545.876 34.6152C548.196 31.832 551.064 29.6348 554.482 28.0234C557.925 26.4121 561.88 25.6064 566.348 25.6064C568.032 25.6064 569.753 25.7407 571.511 26.0093C573.293 26.2778 574.941 26.7783 576.455 27.5107ZM623.586 53.1455C623.586 55.3672 623.33 57.5156 622.817 59.5908C622.305 61.6416 621.56 63.5703 620.583 65.377C619.631 67.1836 618.459 68.8438 617.068 70.3574C615.701 71.8467 614.15 73.1284 612.417 74.2026C610.708 75.2769 608.84 76.1191 606.814 76.7295C604.788 77.3154 602.639 77.6084 600.369 77.6084C598.171 77.6084 596.072 77.3276 594.07 76.7661C592.092 76.2046 590.237 75.4233 588.503 74.4224C586.77 73.397 585.195 72.1763 583.779 70.7603C582.388 69.3198 581.191 67.7329 580.19 65.9995C579.214 64.2417 578.445 62.3618 577.883 60.3599C577.346 58.3579 577.078 56.2705 577.078 54.0977C577.078 51.9736 577.334 49.8984 577.847 47.8721C578.359 45.8213 579.092 43.8926 580.044 42.0859C581.021 40.2793 582.192 38.6191 583.56 37.1055C584.927 35.5918 586.453 34.2856 588.137 33.187C589.846 32.0884 591.689 31.2339 593.667 30.6235C595.645 30.0132 597.732 29.708 599.929 29.708C603.469 29.708 606.692 30.2573 609.597 31.356C612.527 32.4546 615.017 34.0293 617.068 36.0801C619.143 38.1064 620.742 40.5723 621.865 43.4775C623.013 46.3584 623.586 49.5811 623.586 53.1455ZM607.327 54.0977C607.327 53.0479 607.168 52.0347 606.851 51.0581C606.558 50.0571 606.118 49.1782 605.532 48.4214C604.946 47.6401 604.214 47.0176 603.335 46.5537C602.48 46.0654 601.492 45.8213 600.369 45.8213C599.221 45.8213 598.196 46.0288 597.292 46.4438C596.389 46.8589 595.608 47.4326 594.949 48.165C594.314 48.873 593.826 49.7153 593.484 50.6919C593.142 51.644 592.971 52.6572 592.971 53.7314C592.971 54.7568 593.118 55.7822 593.411 56.8076C593.704 57.833 594.143 58.7607 594.729 59.5908C595.315 60.4209 596.035 61.0923 596.89 61.605C597.769 62.1177 598.782 62.374 599.929 62.374C601.077 62.374 602.102 62.1543 603.005 61.7148C603.933 61.251 604.714 60.6406 605.349 59.8838C605.984 59.1025 606.472 58.2114 606.814 57.2104C607.156 56.2095 607.327 55.1719 607.327 54.0977ZM682.766 25.6064L679.397 79.3662L662.698 80.0986L662.844 51.7539L655.3 74.6055H648.855L643.069 54.1709L642.996 77.9014L626.077 78.4141L626.809 27.8037L645.632 27.0713L653.103 51.3145L663.064 25.6064H682.766Z" fill="white"/>
</g>
<defs>
<clipPath id="clip0_3_2">
<rect width="696" height="209" fill="white"/>
</clipPath>
<clipPath id="clip1_3_2">
<rect width="97.4925" height="100" fill="white" transform="translate(598.3 109)"/>
</clipPath>
</defs>
</svg>
