<?xml version="1.0" standalone="no"?>
<!DOCTYPE svg PUBLIC "-//W3C//DTD SVG 20010904//EN"
 "http://www.w3.org/TR/2001/REC-SVG-20010904/DTD/svg10.dtd">
<svg version="1.0" xmlns="http://www.w3.org/2000/svg"
 width="1000.000000pt" height="1000.000000pt" viewBox="0 0 1000.000000 1000.000000"
 preserveAspectRatio="xMidYMid meet">

<g transform="translate(0.000000,1000.000000) scale(0.100000,-0.100000)"
fill="#000000" stroke="none">
<path d="M4344 9981 c-41 -25 -72 -99 -85 -203 -6 -46 -12 -97 -15 -115 l-5
-32 -34 15 c-79 33 -151 7 -242 -89 l-59 -62 1 155 c0 126 -3 164 -18 202 -20
51 -36 62 -70 49 -41 -16 -60 -46 -53 -88 19 -120 19 -126 -13 -208 -35 -91
-86 -181 -135 -240 l-34 -40 -39 31 c-47 38 -76 80 -105 152 -19 49 -22 77
-24 202 -1 175 -7 190 -67 190 -47 0 -81 -23 -98 -67 -13 -36 -10 -158 6 -238
8 -38 18 -135 22 -214 6 -143 6 -143 -15 -132 -53 28 -92 -3 -112 -92 -16 -68
-31 -95 -72 -133 -58 -54 -99 -78 -108 -64 -10 17 -3 42 37 133 37 84 38 120
3 152 -17 15 -21 15 -49 0 -50 -25 -109 -111 -177 -253 -35 -73 -70 -135 -80
-139 -37 -14 -281 88 -307 128 -8 13 -20 47 -26 74 -14 60 -29 81 -65 95 -37
14 -43 13 -66 -10 -37 -37 -17 -135 60 -293 60 -125 92 -250 94 -374 0 -50 -2
-95 -7 -99 -10 -10 -57 26 -83 64 -12 17 -26 57 -33 89 -13 64 -23 81 -63 107
-59 39 -90 -3 -96 -131 -4 -82 -2 -97 22 -148 14 -32 41 -78 60 -104 77 -106
85 -156 47 -309 -20 -78 -26 -92 -40 -86 -64 27 -97 33 -181 33 -204 1 -373
-77 -356 -163 8 -38 43 -76 71 -76 12 0 52 22 89 50 83 60 94 64 148 50 86
-23 178 -159 178 -263 l0 -30 -22 33 c-35 51 -63 56 -100 20 -27 -28 -30 -35
-24 -73 4 -23 18 -66 31 -94 l24 -53 -37 16 c-20 9 -69 28 -109 41 -69 24 -74
25 -98 9 -60 -40 -17 -93 142 -175 149 -77 207 -134 253 -250 27 -71 7 -68
-69 8 -32 33 -69 62 -82 65 -13 2 -62 12 -109 22 -124 26 -213 23 -281 -8
-118 -54 -209 -157 -209 -235 0 -33 22 -63 46 -63 34 0 96 44 140 100 61 78
97 100 163 100 92 0 164 -46 218 -140 14 -25 54 -75 89 -111 46 -48 64 -76 70
-104 11 -61 -11 -132 -67 -216 l-51 -75 -82 33 c-120 49 -186 43 -186 -18 0
-45 25 -84 74 -118 29 -20 59 -56 88 -103 30 -51 62 -88 106 -123 l64 -50 -36
-3 c-30 -3 -41 -10 -61 -43 -21 -32 -31 -39 -58 -39 -34 0 -112 36 -217 100
-82 51 -137 55 -170 13 -24 -31 -21 -74 7 -105 21 -24 163 -91 258 -123 74
-25 161 -31 215 -16 18 5 33 1 55 -15 71 -52 167 -90 260 -102 l60 -8 -32 -17
c-49 -26 -99 -73 -113 -107 -7 -16 -16 -30 -21 -30 -4 0 -28 26 -54 59 -41 52
-78 81 -106 81 -17 0 -49 -64 -49 -98 0 -18 9 -49 19 -70 19 -38 114 -134 164
-167 15 -10 24 -22 20 -26 -11 -11 -161 -28 -203 -23 -19 3 -61 10 -92 16 -72
13 -92 2 -82 -46 20 -96 72 -122 222 -113 53 3 108 9 121 13 20 6 13 -6 -36
-69 -144 -180 -169 -279 -68 -262 56 9 78 26 114 89 81 140 190 153 264 29 61
-103 87 -132 176 -202 81 -64 101 -87 101 -111 0 -5 -24 -22 -53 -39 -58 -33
-77 -62 -77 -117 0 -42 19 -80 57 -115 35 -33 69 -50 158 -79 91 -29 143 -59
188 -109 45 -50 84 -124 68 -129 -33 -11 -135 -89 -165 -125 -68 -85 -83 -144
-44 -171 48 -34 70 -22 112 59 40 76 54 87 76 60 6 -7 32 -17 57 -21 41 -6 54
-2 159 51 105 53 114 59 124 93 5 21 10 42 10 49 0 7 12 23 27 37 l26 25 -68
78 c-137 156 -232 301 -319 483 -86 183 -156 426 -172 598 l-7 71 -63 31
c-124 61 -212 179 -234 316 -13 77 -13 512 0 589 20 120 100 238 204 299 24
14 56 26 70 26 34 0 56 35 56 91 0 106 70 428 134 621 79 235 164 394 271 504
81 84 109 95 290 119 227 29 580 37 1495 32 976 -5 1158 -14 1329 -63 139 -40
287 -266 400 -610 70 -211 131 -497 131 -609 0 -58 19 -85 61 -85 63 0 182
-108 232 -210 l32 -65 0 -345 0 -345 -33 -68 c-42 -85 -113 -156 -195 -197
l-63 -31 -13 -101 c-35 -284 -147 -577 -316 -829 l-77 -114 11 -50 c6 -27 15
-102 20 -165 10 -124 22 -160 74 -232 27 -37 36 -61 41 -109 7 -71 26 -99 67
-99 46 0 63 36 57 122 -5 62 -13 85 -61 178 -36 69 -58 125 -63 158 -3 29 -4
52 0 52 4 0 24 -9 46 -20 68 -35 211 -72 258 -67 43 5 82 30 82 53 0 33 -93
82 -252 130 -32 10 -58 20 -58 23 0 3 26 25 58 48 70 52 115 98 175 184 30 43
59 72 83 84 34 16 39 16 75 1 22 -9 57 -23 78 -32 48 -20 89 -12 100 19 13 33
-3 53 -69 89 -46 25 -60 38 -60 56 0 19 3 21 19 12 30 -16 50 -12 76 15 30 29
32 67 5 103 -20 27 -20 31 -6 122 9 51 20 98 26 104 15 15 219 13 247 -2 12
-7 41 -44 63 -82 23 -39 53 -78 67 -87 25 -16 26 -16 44 6 27 34 24 101 -7
172 -21 46 -37 64 -80 93 -50 34 -54 39 -54 76 0 22 13 76 30 122 17 45 30
100 30 122 l0 41 61 -68 c77 -86 101 -87 127 -9 15 44 0 86 -65 182 -104 155
-109 190 -24 190 39 0 105 -50 136 -103 18 -31 29 -71 37 -133 10 -80 15 -92
44 -122 59 -59 97 -10 98 128 1 148 -51 263 -149 328 -45 31 -49 36 -46 69 2
28 -3 42 -29 68 -31 32 -32 33 -12 44 12 6 67 16 124 21 159 17 208 36 208 84
0 39 -28 64 -97 86 -108 36 -188 90 -242 165 l-31 43 31 6 c18 3 55 6 85 6 99
0 142 35 123 103 -13 49 -49 67 -136 68 -59 1 -63 2 -30 9 77 15 121 73 97
130 -16 37 -57 54 -125 48 -50 -4 -55 -3 -55 15 0 36 40 84 123 148 99 77 165
144 173 176 10 37 -20 73 -59 73 -35 0 -64 -16 -114 -63 -18 -17 -33 -28 -33
-24 0 3 13 40 30 81 32 81 70 217 70 250 0 36 -37 86 -64 86 -60 0 -100 -66
-127 -207 -6 -35 -16 -63 -21 -63 -5 0 -24 7 -43 14 -52 22 -47 55 30 217 76
159 87 211 55 252 -37 47 -72 30 -119 -58 l-22 -40 5 47 c3 29 26 89 59 155
60 119 87 218 87 317 0 53 -4 69 -22 90 -35 38 -63 42 -93 12 -14 -14 -25 -35
-26 -48 -2 -128 -19 -241 -42 -291 -30 -65 -51 -79 -115 -75 l-47 3 1 38 c1
24 13 57 34 90 99 156 102 161 96 197 -10 66 -71 88 -134 50 -18 -11 -37 -18
-43 -15 -15 10 -10 97 11 207 25 129 25 201 1 255 -21 45 -49 60 -81 43 -12
-7 -23 -10 -25 -8 -8 7 16 227 32 297 l17 74 -28 23 c-34 30 -76 31 -103 2
-41 -45 -55 -90 -63 -199 -5 -59 -14 -116 -21 -127 -36 -58 -159 -55 -173 4
-7 26 -3 47 26 148 39 132 -4 272 -73 236 -33 -18 -50 -67 -59 -177 -12 -133
-25 -152 -16 -23 7 100 5 110 -32 129 -30 16 -57 6 -114 -41 l-48 -40 -2 74
c-2 87 -2 93 7 228 9 121 -2 158 -54 180 -26 11 -35 10 -56 -4 -34 -22 -62
-69 -82 -136 -20 -68 -36 -94 -69 -108 -38 -18 -44 -15 -44 20 0 18 -12 89
-26 158 -31 154 -27 186 29 213 50 23 65 61 39 96 -16 22 -28 26 -79 29 -112
5 -140 -47 -122 -233 8 -79 8 -118 0 -138 -15 -38 -27 -27 -34 29 -9 82 -82
129 -164 105 l-33 -10 6 132 c7 157 0 187 -46 187 -20 0 -43 -11 -69 -36 -34
-30 -42 -46 -56 -109 -13 -57 -28 -91 -65 -142 -26 -38 -55 -74 -64 -82 -14
-12 -16 -9 -16 31 0 64 31 178 78 283 51 117 58 149 38 180 -38 59 -83 40
-221 -94 -113 -110 -163 -147 -269 -197 -54 -26 -85 -34 -113 -32 -36 3 -38 5
-48 49 -14 62 -27 76 -86 84 -46 6 -49 9 -49 36 0 40 -42 83 -73 74 -28 -9
-56 -40 -63 -74 -20 -90 -26 -101 -54 -116 -43 -22 -59 -19 -156 30 -48 25
-96 45 -106 45 -23 0 -23 13 2 85 42 121 17 175 -67 144 -47 -18 -85 -82 -110
-189 -19 -82 -41 -112 -90 -128 -38 -13 -36 -20 -24 101 7 65 13 84 39 117 17
21 39 55 49 75 18 37 17 37 -6 56 -30 24 -87 24 -127 0z"/>
<path d="M4060 6854 c-252 -24 -462 -109 -602 -244 -66 -63 -78 -80 -78 -108
0 -41 30 -72 71 -72 25 0 46 14 104 69 89 84 197 141 340 177 160 40 305 42
507 8 31 -5 41 -2 62 19 57 57 23 113 -80 133 -76 15 -253 24 -324 18z"/>
<path d="M5760 6854 c-14 -2 -63 -9 -109 -15 -66 -9 -90 -17 -108 -35 -32 -32
-28 -80 8 -106 25 -19 29 -19 131 -4 131 20 206 20 331 1 191 -29 330 -91 443
-197 57 -54 78 -68 103 -68 40 0 71 31 71 71 0 60 -144 185 -295 255 -157 72
-428 119 -575 98z"/>
<path d="M3995 6211 c-102 -26 -175 -114 -175 -210 0 -72 53 -157 119 -190 59
-31 103 -35 168 -16 147 43 208 211 119 328 -55 72 -152 109 -231 88z"/>
<path d="M5913 6211 c-117 -30 -193 -149 -165 -258 37 -140 187 -207 317 -143
127 63 162 216 73 324 -53 64 -148 96 -225 77z"/>
<path d="M4570 5330 c0 -58 78 -148 168 -194 88 -45 164 -59 297 -54 94 4 133
10 180 28 74 29 137 69 128 83 -3 5 -2 7 4 4 21 -13 93 89 93 133 0 20 -3 20
-435 20 -431 0 -435 0 -435 -20z"/>
<path d="M4487 4638 c18 -161 99 -290 237 -380 83 -54 169 -78 275 -78 149 0
255 40 360 135 95 87 161 218 161 320 l0 45 -519 0 -519 0 5 -42z"/>
</g>
</svg>
