<?xml version="1.0" encoding="UTF-8"?>
<svg id="Layer_1" data-name="Layer 1" xmlns="http://www.w3.org/2000/svg" version="1.1" viewBox="0 0 64 64">
  <defs>
    <style>
      .cls-1 {
        fill: #000;
        stroke-width: 0px;
      }
    </style>
  </defs>
  <g id="_10-Boot" data-name=" 10-Boot">
    <path id="Path_20" data-name="Path 20" class="cls-1" d="M36.1,9.4H6.6c-.6,0-1.1-.5-1.1-1.1h0V1.4c0-.6.5-1.1,1.1-1.1h29.4c.6,0,1.1.5,1.1,1.1v6.8c0,.6-.5,1.1-1.1,1.1ZM7.8,7.1h27.2V2.6H7.8v4.5Z"/>
    <path id="Path_21" data-name="Path 21" class="cls-1" d="M56.5,63.7h-19.2v-2.3h19.2c.6,0,1.1-.5,1.1-1.1h0v-6.5c0-1.6-1.1-3-2.7-3.3l-19.5-4.2c-2.3-.6-3.9-2.8-3.8-5.2l3.3-31.6H7.9l2,21.7c.6,6.6.3,13.2-.7,19.7-.2,1.6-.3,3.3-.3,4.9v4.5c0,.6.5,1.1,1.1,1.1h6.7c.4,0,.7-.2.9-.5l1.2-1.7c.8-1.2,2.4-1.5,3.6-.7.7.5,1.2,1.3,1.2,2.2,0,0,0,.8.7.8h5v2.3h-5c-1.6,0-2.9-1.3-2.9-3,0,0,0,0,0,0,0-.2-.2-.3-.4-.3,0,0-.2,0-.2.1l-1.2,1.7c-.6.9-1.7,1.5-2.8,1.5h-6.7c-1.9,0-3.4-1.5-3.4-3.4v-4.5c0-1.8.1-3.5.4-5.3,1-6.4,1.2-12.8.7-19.2l-2.2-23c0-.6.4-1.2,1-1.2,0,0,0,0,.1,0h29.4c.6,0,1.1.5,1.1,1.1,0,0,0,0,0,.1l-3.4,32.8c0,1.3.8,2.4,2.1,2.8l19.5,4.2c2.6.6,4.4,2.9,4.5,5.5v6.5c0,1.9-1.5,3.4-3.4,3.4h0Z"/>
    <path id="Path_22" data-name="Path 22" class="cls-1" d="M31.6,61.4h3.4v2.3h-3.4v-2.3Z"/>
    <path id="Path_23" data-name="Path 23" class="cls-1" d="M34.9,19.5h-18.7c-2.2,0-4-1.8-4-4,0-2.2,1.8-4,4-4h18.7v2.3h-18.7c-.9,0-1.7.8-1.7,1.7,0,.9.8,1.7,1.7,1.7h18.7v2.3Z"/>
    <path id="Path_24" data-name="Path 24" class="cls-1" d="M58.7,59.2h-29.7c-1.6,0-3.1-.5-4.4-1.3-.9-.6-2-.9-3.1-.9H7.8v-2.3h13.8c1.6,0,3.1.5,4.4,1.3.9.6,2,.9,3.1.9h29.7v2.3Z"/>
  </g>
</svg>