<?xml version="1.0" encoding="UTF-8"?>
<svg id="Layer_1" data-name="Layer 1" xmlns="http://www.w3.org/2000/svg" version="1.1" viewBox="0 0 64 64">
  <defs>
    <style>
      .cls-1 {
        fill: #000;
        stroke-width: 0px;
      }
    </style>
  </defs>
  <g id="brochure">
    <circle id="Ellipse_1" data-name="Ellipse 1" class="cls-1" cx="55.7" cy="31.8" r="1.2"/>
    <path id="Path_3" data-name="Path 3" class="cls-1" d="M61,12.9h-4.1v-3.9c0-.7-.5-1.2-1.2-1.2,0,0-.2,0-.2,0l-23.5,5.1L8.5,7.8c-.6-.1-1.3.3-1.4.9,0,0,0,.2,0,.2v3.9H3c-.7,0-1.2.5-1.2,1.2v41c0,.7.5,1.2,1.2,1.2h57.9c.7,0,1.2-.5,1.2-1.2V14.1c0-.7-.5-1.2-1.2-1.2h0ZM9.5,10.4l21.3,4.6v38.6s-21.3-4.6-21.3-4.6V10.4ZM4.2,15.2h2.9v34.7c0,.6.4,1,.9,1.2l12.9,2.8H4.2V15.2ZM59.8,53.9h-16.7l12.9-2.8c.5-.1.9-.6.9-1.2v-12.8c0-.7-.5-1.2-1.2-1.2s-1.2.5-1.2,1.2v11.8l-21.4,4.6V15s21.4-4.6,21.4-4.6v16.2c0,.7.5,1.2,1.2,1.2s1.2-.5,1.2-1.2v-11.3h2.9v38.6Z"/>
    <path id="Path_4" data-name="Path 4" class="cls-1" d="M13.3,25.7l13.2,2.8c.6.1,1.3-.3,1.4-.9,0,0,0-.1,0-.2v-5.9c0-.6-.4-1-.9-1.2l-13.2-2.8c-.6-.1-1.3.3-1.4.9,0,0,0,.2,0,.2v5.9c0,.6.4,1,.9,1.2ZM14.8,20.1l10.8,2.3v3.5l-10.8-2.3v-3.5Z"/>
    <path id="Path_5" data-name="Path 5" class="cls-1" d="M13.3,31.6l13.2,2.8c.6.1,1.3-.3,1.4-.9.1-.6-.3-1.3-.9-1.4h0l-13.2-2.8c-.6-.1-1.3.3-1.4.9-.1.6.3,1.3.9,1.4Z"/>
    <path id="Path_6" data-name="Path 6" class="cls-1" d="M27,38l-13.2-2.8c-.6-.1-1.3.3-1.4.9-.1.6.3,1.3.9,1.4l13.2,2.8c.6.1,1.3-.3,1.4-.9.1-.6-.3-1.3-.9-1.4Z"/>
    <path id="Path_7" data-name="Path 7" class="cls-1" d="M27,43.9l-13.2-2.8c-.6-.1-1.3.3-1.4.9-.1.6.3,1.3.9,1.4l13.2,2.8c.6.1,1.3-.3,1.4-.9.1-.6-.3-1.3-.9-1.4Z"/>
    <path id="Path_8" data-name="Path 8" class="cls-1" d="M50.3,17.5l-13.2,2.8c-.6.1-1,.8-.9,1.4.1.6.8,1,1.4.9l13.2-2.8c.6-.1,1-.8.9-1.4-.1-.6-.8-1-1.4-.9h0Z"/>
    <path id="Path_9" data-name="Path 9" class="cls-1" d="M50.3,23.4l-13.2,2.8c-.6.1-1,.8-.9,1.4.1.6.8,1,1.4.9h0l13.2-2.8c.6-.1,1-.8.9-1.4-.1-.6-.8-1-1.4-.9Z"/>
    <path id="Path_10" data-name="Path 10" class="cls-1" d="M51.3,29.5c-.3-.2-.6-.3-1-.2l-13.2,2.8c-.5.1-.9.6-.9,1.2v11.8c0,.7.5,1.2,1.2,1.2,0,0,.1,0,.2,0l13.2-2.8c.5-.1.9-.6.9-1.2v-11.8c0-.4-.2-.7-.4-.9h0ZM49.4,41.3l-10.8,2.3v-9.4l10.8-2.3v9.4Z"/>
  </g>
</svg>