<?xml version="1.0" encoding="UTF-8"?>
<svg id="Layer_1" data-name="Layer 1" xmlns="http://www.w3.org/2000/svg" version="1.1" viewBox="0 0 64 64">
  <defs>
    <style>
      .cls-1 {
        fill: #000;
        stroke-width: 0px;
      }
    </style>
  </defs>
  <g id="_054---Early-Riser" data-name=" 054---Early-Riser">
    <path id="Shape" class="cls-1" d="M2.9,31.8c0,.5.4,1,1,1h3.9c.5,0,1-.4,1-1s-.4-1-1-1h-3.9c-.5,0-1,.4-1,1,0,0,0,0,0,0Z"/>
    <path id="Shape-2" class="cls-1" d="M59.9,44.4h-10.9c6.9-9.5,4.9-22.8-4.6-29.7-9.5-6.9-22.8-4.9-29.7,4.6-5.5,7.5-5.5,17.7,0,25.1H3.8c-.5,0-1,.4-1,1s.4,1,1,1h56c.5,0,1-.4,1-1s-.4-1-1-1ZM12.5,31.8c0-10.7,8.6-19.3,19.3-19.3,10.7,0,19.3,8.6,19.3,19.3,0,4.6-1.6,9.1-4.7,12.6h-10.8v-2.8c4.3-2.1,6.1-7.3,3.9-11.6,0,0,0-.1,0-.2,0,0,0-.1,0-.1,0,0,0,0,0,0,.7-.5,1.3-1.1,1.7-1.8l2,.6c.7.2,1.4,0,1.7-.6.4-.6.4-1.3,0-1.8l-1.4-1.8,1.4-1.8c.4-.5.4-1.3,0-1.8-.4-.6-1.1-.8-1.7-.6l-2,.6c-2.1-3.1-6.3-4-9.4-1.9-1.9,1.2-3,3.3-3,5.5-1.5,5.5-8.6,7.9-11.6,8.6-1.4.3-2.2,1.7-1.9,3.1.3,1.1,1.3,2,2.5,2h2.3c0,.2,0,.5,0,.7.2.7.9,1.2,1.7,1.2h1.6c.5,0,1,0,1.6-.1,1,1.2,2.3,2,3.7,2.5v2.4h-11.8c-3-3.5-4.7-8-4.7-12.6h0ZM21.7,35.7h-3.7c-.3,0-.6-.3-.6-.6,0,0,0,0,0,0,0-.3.2-.5.5-.6,3-.7,5.8-1.9,8.3-3.6-1.2,1.8-2.7,3.5-4.4,4.9h0ZM30.2,26.9c.3,1,.5,2,.6,3.1.2,1.8-.4,3.7-1.6,5.1-1.4,1.6-3.4,2.5-5.5,2.5h-1.3c3.6-2.7,6.3-6.4,7.8-10.7ZM30.6,36.4c1.6-1.8,2.4-4.2,2.1-6.6-.5-3.6-1.4-5.3-1.9-6,0-1.3.7-2.6,1.8-3.4,1.1-.9,2.6-1.3,4.1-1,1.1.2,2,.8,2.7,1.7-1.7.9-2.3,3.1-1.4,4.8.3.6.8,1,1.4,1.4-.3.3-.6.6-.9.9-.9.6-1.1,1.7-.6,2.6,1.7,3.3.4,7.4-2.9,9.1-2.5,1.3-5.5.9-7.6-1,1.3-.6,2.4-1.4,3.3-2.4h0ZM42,25l.9,1.2-2.1-.6c-.8-.2-1.3-1.1-1.1-2,.2-.5.6-.9,1.1-1.1l2.1-.6-.9,1.2c-.4.6-.4,1.3,0,1.9ZM31.9,42.4c.6,0,1.1,0,1.7-.2,0,0,.2,0,.2,0v2.2h-2.9v-2c.3,0,.6,0,1,0Z"/>
    <path id="Shape-3" class="cls-1" d="M56,50.2c0-.5-.4-1-1-1H8.7c-.5,0-1,.4-1,1s.4,1,1,1h46.4c.5,0,1-.4,1-1h0Z"/>
    <path id="Shape-4" class="cls-1" d="M50.2,55c0-.5-.4-1-1-1H14.5c-.5,0-1,.4-1,1s.4,1,1,1h34.8c.5,0,1-.4,1-1h0Z"/>
    <path id="Shape-5" class="cls-1" d="M22.2,58.9c-.5,0-1,.4-1,1s.4,1,1,1h19.3c.5,0,1-.4,1-1s-.4-1-1-1h-19.3Z"/>
    <path id="Shape-6" class="cls-1" d="M10.4,20.6c.5.3,1.1.1,1.3-.4s.1-1.1-.4-1.3l-3.3-1.9c-.5-.3-1.1-.1-1.3.4-.3.5-.1,1.1.4,1.3l3.3,1.9Z"/>
    <path id="Shape-7" class="cls-1" d="M19.8,11.9c.5,0,1-.4,1-1,0-.2,0-.3-.1-.5l-1.9-3.3c-.3-.5-.9-.6-1.3-.4-.5.3-.6.9-.4,1.3l1.9,3.3c.2.3.5.5.8.5Z"/>
    <path id="Shape-8" class="cls-1" d="M32.8,7.7v-3.9c0-.5-.4-1-1-1s-1,.4-1,1v3.9c0,.5.4,1,1,1s1-.4,1-1Z"/>
    <path id="Shape-9" class="cls-1" d="M43.9,11.9c.3,0,.7-.2.8-.5l1.9-3.3c.3-.5.1-1.1-.4-1.3-.5-.3-1.1-.1-1.3.4l-1.9,3.3c-.3.5-.1,1.1.4,1.3.1,0,.3.1.5.1h0Z"/>
    <path id="Shape-10" class="cls-1" d="M52.8,20.7c.2,0,.3,0,.5-.1l3.3-1.9c.5-.3.6-.9.4-1.3-.3-.5-.9-.6-1.3-.4l-3.3,1.9c-.5.3-.6.9-.4,1.3.2.3.5.5.8.5Z"/>
    <path id="Shape-11" class="cls-1" d="M59.9,30.9h-3.9c-.5,0-1,.4-1,1s.4,1,1,1h3.9c.5,0,1-.4,1-1s-.4-1-1-1Z"/>
    <circle id="Oval" class="cls-1" cx="35.5" cy="22" r=".9"/>
  </g>
</svg>