<?xml version="1.0" encoding="UTF-8"?>
<svg id="Layer_1" data-name="Layer 1" xmlns="http://www.w3.org/2000/svg" version="1.1" viewBox="0 0 64 64">
  <defs>
    <style>
      .cls-1 {
        fill: #000;
        stroke-width: 0px;
      }
    </style>
  </defs>
  <g id="exclusive">
    <path id="Path_1" data-name="Path 1" class="cls-1" d="M60.5,55.6h-3.9v-4.2c0-.5-.4-1-1-1s-1,.4-1,1v5.2c0,.5.4,1,1,1h3.9v2h-11.8v-2h3.9c.5,0,1-.4,1-1v-23.3c0-.3-.2-.7-.5-.8-.9-.5-1.5-1.5-1.5-2.5,0-1.6,1.3-2.9,2.9-2.9s2.9,1.3,2.9,2.9c0,1.1-.6,2-1.5,2.5-.3.2-.5.5-.5.8v14.5c0,.5.4,1,1,1s1-.4,1-1v-14c2.2-1.6,2.6-4.7,1-6.9-1.6-2.2-4.7-2.6-6.9-1-2.2,1.6-2.6,4.7-1,6.9.3.4.6.7,1,1v1.6c-8.5,3.5-17.9,4.5-27,3-.5,0-1,.3-1.1.8,0,.5.3,1,.8,1.1,2.9.5,5.8.7,8.7.7,6.4,0,12.7-1.2,18.7-3.5v2.1c-12,4.5-25.3,4.5-37.4,0v-2.1c2.1.8,4.2,1.5,6.4,2,.5.1,1.1-.2,1.2-.7s-.2-1.1-.7-1.2c0,0,0,0,0,0-2.3-.6-4.6-1.3-6.9-2.2v-1.6c2.2-1.6,2.6-4.7,1-6.9-1.6-2.2-4.7-2.6-6.9-1-2.2,1.6-2.6,4.7-1,6.9.3.4.6.7,1,1v21.8h-3.9c-.5,0-1,.4-1,1v3.9c0,.5.4,1,1,1h13.8c.5,0,1-.4,1-1v-3.9c0-.5-.4-1-1-1h-3.9v-13.9c6,2.2,12.3,3.3,18.7,3.3,6.4,0,12.7-1.1,18.7-3.3v13.9h-3.9c-.5,0-1,.4-1,1v3.9c0,.5.4,1,1,1h13.8c.5,0,1-.4,1-1v-3.9c0-.5-.4-1-1-1h0ZM16.3,57.6v2H4.5v-2h3.9c.5,0,1-.4,1-1v-23.3c0-.3-.2-.7-.5-.8-.9-.5-1.5-1.5-1.5-2.5,0-1.6,1.3-3,2.9-3s3,1.3,3,2.9h0c0,1.1-.6,2-1.5,2.5-.3.2-.5.5-.5.8v23.3c0,.5.4,1,1,1h3.9Z"/>
    <path id="Path_2" data-name="Path 2" class="cls-1" d="M19.6,16.1l3.7,2.7c.5.3.7,1,.5,1.5l-1.4,4.3c-.5,1.4,0,2.9,1.2,3.7,1.2.9,2.8.9,3.9,0l3.7-2.7c.5-.4,1.1-.4,1.6,0l3.7,2.7c1.5,1.1,3.6.8,4.7-.7.6-.9.8-2,.5-3l-1.4-4.3c-.2-.6,0-1.2.5-1.5l3.7-2.7c1.5-1.1,1.8-3.2.7-4.7-.6-.9-1.6-1.4-2.7-1.4h-4.5c-.6,0-1.1-.4-1.3-.9l-1.4-4.3c-.6-1.8-2.5-2.7-4.2-2.1-1,.3-1.8,1.1-2.1,2.1l-1.4,4.3c-.2.6-.7,1-1.3.9h-4.5c-1.8,0-3.3,1.5-3.3,3.3,0,1.1.5,2.1,1.4,2.7h0ZM20.3,13c.2-.6.7-1,1.3-.9h4.5c1.4,0,2.7-.9,3.2-2.3l1.4-4.3c.2-.7,1-1.1,1.7-.9.4.1.7.5.9.9l1.4,4.3c.4,1.4,1.7,2.3,3.2,2.3h4.5c.8,0,1.4.6,1.4,1.4,0,.4-.2.9-.6,1.1l-3.7,2.7c-1.2.8-1.7,2.4-1.2,3.7l1.4,4.3c.2.7-.2,1.5-.9,1.7-.4.1-.9,0-1.2-.2l-3.7-2.7c-1.2-.9-2.8-.9-3.9,0l-3.7,2.7c-.6.4-1.5.3-1.9-.3-.3-.4-.3-.8-.2-1.2l1.4-4.3c.4-1.4,0-2.9-1.2-3.7l-3.7-2.7c-.5-.3-.7-1-.5-1.5h0Z"/>
  </g>
</svg>