<?xml version="1.0" encoding="UTF-8"?>
<svg id="Layer_1" data-name="Layer 1" xmlns="http://www.w3.org/2000/svg" version="1.1" viewBox="0 0 64 64">
  <defs>
    <style>
      .cls-1 {
        fill: #000;
        stroke-width: 0px;
      }
    </style>
  </defs>
  <g id="online-meeting">
    <path id="Path_11" data-name="Path 11" class="cls-1" d="M2,39.9c-.5,0-1-.4-1-1V13.7c0-2.7,2.2-4.8,4.8-4.8h52.3c2.7,0,4.8,2.2,4.8,4.8v1.9c0,.5-.4,1-1,1-.5,0-1-.4-1-1h0v-1.9c0-1.6-1.3-2.9-2.9-2.9H5.9c-1.6,0-2.9,1.3-2.9,2.9v25.2c0,.5-.4,1-1,1h0Z"/>
    <path id="Path_12" data-name="Path 12" class="cls-1" d="M58.3,49.6H5.9c-2.7,0-4.8-2.2-4.8-4.8v-2.9c0-.5.4-1,1-1s1,.4,1,1v2.9c0,1.6,1.3,2.9,2.9,2.9h52.3c1.6,0,2.9-1.3,2.9-2.9h0v-26.2c0-.5.4-1,1-1,.5,0,1,.4,1,1h0v26.2c0,2.7-2.2,4.8-4.8,4.8Z"/>
    <path id="Path_13" data-name="Path 13" class="cls-1" d="M39.8,57.4h-15.5c-.5,0-1-.4-1-1,0-.3.1-.5.3-.7,3.5-3.5,3.6-7,3.6-7.1,0-.5.4-1,1-1h7.8c.5,0,1,.4,1,1s0,3.6,3.6,7.1c.4.4.4,1,0,1.4-.2.2-.4.3-.7.3h0ZM26.5,55.4h11.2c-1.3-1.7-2.2-3.7-2.6-5.8h-6c-.4,2.1-1.3,4.1-2.6,5.8Z"/>
    <path id="Path_14" data-name="Path 14" class="cls-1" d="M58.3,45.7H5.9c-.5,0-1-.4-1-1V13.7c0-.5.4-1,1-1h52.3c.5,0,1,.4,1,1h0v31c0,.5-.4,1-1,1ZM6.9,43.8h50.4V14.7H6.9v29.1Z"/>
    <path id="Path_15" data-name="Path 15" class="cls-1" d="M44.7,34.1c-2.7,0-4.8-2.2-4.8-4.8v-1.9c0-2.7,2.1-4.9,4.8-4.9s4.9,2.1,4.9,4.8c0,0,0,0,0,.1v1.9c0,2.7-2.2,4.8-4.8,4.8ZM44.7,24.4c-1.6,0-2.9,1.3-2.9,2.9h0v1.9c0,1.6,1.3,2.9,2.9,2.9s2.9-1.3,2.9-2.9h0v-1.9c0-1.6-1.3-2.9-2.9-2.9,0,0,0,0,0,0Z"/>
    <path id="Path_16" data-name="Path 16" class="cls-1" d="M52.4,41.9c-.5,0-1-.4-1-1h0v-1.5c0-.9-.6-1.6-1.4-1.9-1.8-.4-3.6-.6-5.4-.5-1.8,0-3.6.1-5.4.5-.8.2-1.4,1-1.4,1.9v1.5c0,.5-.4,1-1,1-.5,0-1-.4-1-1h0v-1.5c0-1.7,1.2-3.3,2.9-3.7,1.9-.4,3.9-.6,5.9-.6,2,0,3.9.1,5.9.6,1.7.5,2.9,2,2.9,3.7v1.5c0,.5-.4,1-1,1,0,0,0,0,0,0Z"/>
    <path id="Path_17" data-name="Path 17" class="cls-1" d="M31.1,36H9.8c-.5,0-1-.4-1-1v-17.4c0-.5.4-1,1-1h21.3c.5,0,1,.4,1,1v17.4c0,.5-.4,1-1,1ZM10.8,34.1h19.4v-15.5H10.8v15.5Z"/>
    <path id="Path_18" data-name="Path 18" class="cls-1" d="M19.5,28.3c-2.1,0-3.9-1.7-3.9-3.9h0v-1c0-2.1,1.7-3.9,3.9-3.9s3.9,1.7,3.9,3.9v1c0,2.1-1.7,3.9-3.9,3.9h0ZM19.5,21.5c-1.1,0-1.9.9-1.9,1.9h0v1c0,1.1.9,1.9,1.9,1.9s1.9-.9,1.9-1.9v-1c0-1.1-.9-1.9-1.9-1.9h0Z"/>
    <path id="Path_19" data-name="Path 19" class="cls-1" d="M24.3,33.1c-.5,0-1-.4-1-1,0-1.1-.9-1.9-1.9-1.9h-3.9c-1.1,0-1.9.9-1.9,1.9h0c0,.5-.4,1-1,1s-1-.4-1-1c0-2.1,1.7-3.9,3.9-3.9h3.9c2.1,0,3.9,1.7,3.9,3.9h0c0,.5-.4,1-1,1Z"/>
  </g>
</svg>