<?xml version="1.0" encoding="UTF-8"?>
<svg id="Layer_1" data-name="Layer 1" xmlns="http://www.w3.org/2000/svg" version="1.1" viewBox="0 0 64 64">
  <defs>
    <style>
      .cls-1 {
        fill: #000;
        stroke-width: 0px;
      }
    </style>
  </defs>
  <g id="ballot">
    <g id="Group_4" data-name="Group 4">
      <path id="Path_25" data-name="Path 25" class="cls-1" d="M56.9,61.5H5.2c-.5,0-.9-.4-.9-.9,0,0,0,0,0,0v-20.6c0-.5.4-.9.9-.9h51.7c.5,0,.9.4.9.9,0,0,0,0,0,0v20.6c0,.5-.4.9-.9.9,0,0,0,0,0,0ZM6.1,59.7h49.8v-18.7H6.1v18.7Z"/>
      <path id="Path_26" data-name="Path 26" class="cls-1" d="M56.9,40.9H5.2c-.5,0-.9-.4-.9-.9,0-.2,0-.3.1-.5l8.7-15.1c.2-.3.5-.5.8-.5h14.4c.5,0,.9.5.9,1,0,.5-.4.8-.9.9h-13.9l-7.6,13.3h48.4l-8.1-13.3h-10.2c-.5,0-1-.3-1-.9s.3-1,.9-1c0,0,0,0,.1,0h10.7c.3,0,.6.2.8.4l9.2,15.1c.2.3.2.6,0,.9-.2.3-.5.5-.8.5Z"/>
      <path id="Path_27" data-name="Path 27" class="cls-1" d="M39.6,33.3h-17.2c-.5,0-1-.3-1-.9,0-.5.3-1,.9-1,0,0,0,0,.1,0h17.2c.5,0,.9.5.9,1,0,.5-.4.8-.9.9h0Z"/>
      <g id="Group_3" data-name="Group 3">
        <path id="Path_28" data-name="Path 28" class="cls-1" d="M17,55.5c-.4,0-.7-.3-.9-.6l-2.9-8.6c-.2-.5,0-1,.5-1.2s1,0,1.2.5c0,0,0,0,0,0l2,6,2-6c.2-.5.7-.8,1.2-.6.5.2.8.7.6,1.2,0,0,0,0,0,0l-2.9,8.6c-.1.4-.5.6-.9.6Z"/>
        <path id="Path_29" data-name="Path 29" class="cls-1" d="M26.5,55.5c-2.1,0-3.8-1.7-3.8-3.8v-2.8c0-2.1,1.7-3.9,3.8-3.9s3.9,1.7,3.9,3.8c0,0,0,0,0,0v2.8c0,2.1-1.7,3.8-3.8,3.8ZM26.5,46.9c-1.1,0-2,.9-2,2v2.8c0,1.1.9,2,2,2,1.1,0,2-.9,2-2,0,0,0,0,0,0v-2.8c0-1.1-.9-2-2-2Z"/>
        <g id="Group_1" data-name="Group 1">
          <path id="Path_30" data-name="Path 30" class="cls-1" d="M35.8,55.5c-.5,0-.9-.4-.9-.9h0v-8.6c0-.5.5-.9,1-.9.5,0,.8.4.9.9v8.6c0,.5-.4.9-.9.9Z"/>
          <path id="Path_31" data-name="Path 31" class="cls-1" d="M38.7,46.9h-5.8c-.5,0-.9-.5-.9-1,0-.5.4-.8.9-.9h5.8c.5,0,.9.5.9,1,0,.5-.4.8-.9.9h0Z"/>
        </g>
        <g id="Group_2" data-name="Group 2">
          <path id="Path_32" data-name="Path 32" class="cls-1" d="M47.9,51.2h-5c-.5,0-.9-.5-.9-1,0-.5.4-.8.9-.9h5c.5,0,.9.5.9,1,0,.5-.4.8-.9.9h0Z"/>
          <path id="Path_33" data-name="Path 33" class="cls-1" d="M47.9,55.5h-5c-.5,0-.9-.4-.9-.9h0v-8.6c0-.5.4-.9.9-.9h5c.5,0,.9.5.9,1,0,.5-.4.8-.9.9h-4.1v6.8h4.1c.5,0,.9.5.9,1,0,.5-.4.8-.9.9h0Z"/>
        </g>
      </g>
    </g>
    <g id="Group_6" data-name="Group 6">
      <path id="Path_34" data-name="Path 34" class="cls-1" d="M49.9,21.2c-1.5,0-3.1-.7-4.5-1.4-.6-.3-1.2-.5-1.6-.7-.8-.2-1.7-.3-2.5-.4h0c-2-.2-4.3-.5-5.4-1.5-.7-.6-1.1-1.5-1-2.4,0-.8.5-1.6,1.2-2,1-.6,2.8-.5,5.8-.2.7,0,1.3.1,2,.2,1.8.1,4.1.2,5.5-.3.5-.2,1,.1,1.2.6.1.4,0,.9-.5,1.1-1.7.7-4.1.6-6.3.5-.7,0-1.4-.1-2-.2-1.2,0-2.3-.2-3.1-.2-.5,0-1.1,0-1.5.2-.2.1-.3.4-.4.6,0,.3.1.6.4.9.7.6,2.9.9,4.4,1h0c1,0,1.9.2,2.9.5.6.2,1.2.5,1.8.8,1.3.6,2.9,1.3,4,1.2,1.1-.2,2.2-.6,3.1-1.4h0c0-.1.1-.2.2-.2.7-.5,1.5-.9,2.4-1.1v-6.2c-.3,0-.6,0-.8,0-2,0-4-.5-5.9-1.3-1.1-.4-2.2-.7-3.3-.9-1.2-.1-3,.2-5.3.9-.5.2-1,0-1.2-.5-.2-.5,0-1,.5-1.2,0,0,0,0,0,0,2.6-.8,4.6-1.2,6.1-1,1.3.2,2.5.5,3.7,1,2,.7,4.1,1.5,6.9,1,.5,0,1,.3,1.1.8,0,0,0,.1,0,.2v8.1c0,.5-.4.9-.9.9,0,0,0,0,0,0-.8,0-1.6.3-2.2.8,0,0-.2.1-.3.2h0c-1.1,1-2.5,1.6-4,1.8-.1,0-.3,0-.4,0h0Z"/>
      <g id="Group_5" data-name="Group 5">
        <path id="Path_35" data-name="Path 35" class="cls-1" d="M34.7,29.6c-.2,0-.3,0-.5-.1l-13.1-7.8c-.2-.1-.4-.3-.4-.6,0-.2,0-.5,0-.7L31.2,3c.1-.2.3-.4.6-.4.2,0,.5,0,.7,0l13.1,7.8c.2.1.4.3.4.6,0,.2,0,.5,0,.7l-1.4,2.4c-.2.3-.5.5-.9.4-.7,0-1.4-.1-2-.2-1.2,0-2.3-.2-3.1-.2-.5,0-1.1,0-1.5.2-.2.1-.3.4-.4.6,0,.3.1.6.4.9.7.6,2.9.9,4.4,1,.5,0,.9.5.8,1,0,.1,0,.3-.1.4l-6.4,10.9c-.2.3-.5.5-.8.5h0ZM22.9,20.6l11.5,6.8,5.3-8.9c-1.6-.2-3.2-.6-4-1.3-.7-.6-1.1-1.5-1-2.4,0-.8.5-1.6,1.2-2,1-.6,2.8-.5,5.8-.2.5,0,1,0,1.4.1l.7-1.2-11.5-6.8-9.4,15.9Z"/>
      </g>
    </g>
  </g>
</svg>